solid OpenSCAD_Model
  facet normal 0.980786 0.195088 0
    outer loop
      vertex 7.2 0 7
      vertex 6.92597 1.37766 0
      vertex 6.92597 1.37766 7
    endloop
  endfacet
  facet normal 0.980786 0.195088 0
    outer loop
      vertex 6.92597 1.37766 0
      vertex 7.2 0 7
      vertex 7.2 0 0
    endloop
  endfacet
  facet normal 0.195088 0.980786 -0
    outer loop
      vertex 4.97766 3.32597 0
      vertex 3.6 3.6 7
      vertex 4.97766 3.32597 7
    endloop
  endfacet
  facet normal 0.195088 0.980786 0
    outer loop
      vertex 3.6 3.6 7
      vertex 4.97766 3.32597 0
      vertex 3.6 3.6 0
    endloop
  endfacet
  facet normal 0.195088 -0.980786 0
    outer loop
      vertex 3.6 -3.6 0
      vertex 4.97766 -3.32597 7
      vertex 3.6 -3.6 7
    endloop
  endfacet
  facet normal 0.195088 -0.980786 0
    outer loop
      vertex 4.97766 -3.32597 7
      vertex 3.6 -3.6 0
      vertex 4.97766 -3.32597 0
    endloop
  endfacet
  facet normal 0.831466 -0.555576 0
    outer loop
      vertex 6.14558 -2.54558 7
      vertex 6.92597 -1.37766 0
      vertex 6.92597 -1.37766 7
    endloop
  endfacet
  facet normal 0.831466 -0.555576 0
    outer loop
      vertex 6.92597 -1.37766 0
      vertex 6.14558 -2.54558 7
      vertex 6.14558 -2.54558 0
    endloop
  endfacet
  facet normal 0.555576 0.831466 -0
    outer loop
      vertex 6.14558 2.54558 0
      vertex 4.97766 3.32597 7
      vertex 6.14558 2.54558 7
    endloop
  endfacet
  facet normal 0.555576 0.831466 0
    outer loop
      vertex 4.97766 3.32597 7
      vertex 6.14558 2.54558 0
      vertex 4.97766 3.32597 0
    endloop
  endfacet
  facet normal 0.831466 0.555576 0
    outer loop
      vertex 6.92597 1.37766 7
      vertex 6.14558 2.54558 0
      vertex 6.14558 2.54558 7
    endloop
  endfacet
  facet normal 0.831466 0.555576 0
    outer loop
      vertex 6.14558 2.54558 0
      vertex 6.92597 1.37766 7
      vertex 6.92597 1.37766 0
    endloop
  endfacet
  facet normal -0.555594 0.831454 0
    outer loop
      vertex 2.22234 3.32597 0
      vertex 2.1 3.24422 7
      vertex 2.22234 3.32597 7
    endloop
  endfacet
  facet normal -0.555594 0.831454 0
    outer loop
      vertex 2.1 3.24422 7
      vertex 2.22234 3.32597 0
      vertex 2.1 3.24422 0
    endloop
  endfacet
  facet normal 0 0 1
    outer loop
      vertex 1.91368 17.136 7
      vertex 2.1 3.24422 7
      vertex 2.1 17.0989 7
    endloop
  endfacet
  facet normal 0 0 1
    outer loop
      vertex 0.907969 17.808 7
      vertex 2.1 3.24422 7
      vertex 1.91368 17.136 7
    endloop
  endfacet
  facet normal 0 0 1
    outer loop
      vertex 2.1 3.24422 7
      vertex 0 0 7
      vertex 2.1 0.756214 7
    endloop
  endfacet
  facet normal 0 0 1
    outer loop
      vertex 2.1 0.756214 7
      vertex 1.9 0 7
      vertex 2.1 0 7
    endloop
  endfacet
  facet normal 0 0 1
    outer loop
      vertex 2.1 0.756214 7
      vertex 0 0 7
      vertex 1.9 0 7
    endloop
  endfacet
  facet normal 0 0 1
    outer loop
      vertex 2.1 3.24422 7
      vertex 0.907969 17.808 7
      vertex 0 0 7
    endloop
  endfacet
  facet normal 0 -0 1
    outer loop
      vertex 0.274034 -1.37766 7
      vertex 1.9 0 7
      vertex 0 0 7
    endloop
  endfacet
  facet normal 0 0 1
    outer loop
      vertex 0 0 7
      vertex 0.907969 17.808 7
      vertex 0.235973 18.8137 7
    endloop
  endfacet
  facet normal 0 0 1
    outer loop
      vertex 0 0 7
      vertex 0.235973 18.8137 7
      vertex 0 20 7
    endloop
  endfacet
  facet normal 0 0 1
    outer loop
      vertex 1.9 0 7
      vertex 0.274034 -1.37766 7
      vertex 1.05441 -2.54558 7
    endloop
  endfacet
  facet normal 0 0 1
    outer loop
      vertex 5.3 0 7
      vertex 7.2 0 7
      vertex 6.92597 1.37766 7
    endloop
  endfacet
  facet normal 0 0 1
    outer loop
      vertex 5.1706 0.650561 7
      vertex 6.92597 1.37766 7
      vertex 6.14558 2.54558 7
    endloop
  endfacet
  facet normal 0 0 1
    outer loop
      vertex 7.2 0 7
      vertex 5.3 0 7
      vertex 6.92597 -1.37766 7
    endloop
  endfacet
  facet normal -0 0 1
    outer loop
      vertex 5.1706 -0.650561 7
      vertex 6.92597 -1.37766 7
      vertex 5.3 0 7
    endloop
  endfacet
  facet normal 0 0 1
    outer loop
      vertex 6.92597 1.37766 7
      vertex 5.1706 0.650561 7
      vertex 5.3 0 7
    endloop
  endfacet
  facet normal 0 0 1
    outer loop
      vertex 4.80208 1.20208 7
      vertex 6.14558 2.54558 7
      vertex 4.97766 3.32597 7
    endloop
  endfacet
  facet normal 0 0 1
    outer loop
      vertex 6.14558 2.54558 7
      vertex 4.80208 1.20208 7
      vertex 5.1706 0.650561 7
    endloop
  endfacet
  facet normal 0 0 1
    outer loop
      vertex 4.97766 3.32597 7
      vertex 4.25056 1.57059 7
      vertex 4.80208 1.20208 7
    endloop
  endfacet
  facet normal 0 0 1
    outer loop
      vertex 3.6 3.6 7
      vertex 4.25056 1.57059 7
      vertex 4.97766 3.32597 7
    endloop
  endfacet
  facet normal 0 0 1
    outer loop
      vertex 3.6 3.6 7
      vertex 3.6 1.7 7
      vertex 4.25056 1.57059 7
    endloop
  endfacet
  facet normal 0 0 1
    outer loop
      vertex 3.6 3.6 7
      vertex 2.94944 1.57059 7
      vertex 3.6 1.7 7
    endloop
  endfacet
  facet normal -0 0 1
    outer loop
      vertex 2.22234 3.32597 7
      vertex 2.94944 1.57059 7
      vertex 3.6 3.6 7
    endloop
  endfacet
  facet normal -0 0 1
    outer loop
      vertex 2.1 3.24422 7
      vertex 2.94944 1.57059 7
      vertex 2.22234 3.32597 7
    endloop
  endfacet
  facet normal 0 0 1
    outer loop
      vertex 2.94944 1.57059 7
      vertex 2.1 3.24422 7
      vertex 2.39792 1.20208 7
    endloop
  endfacet
  facet normal 0 0 1
    outer loop
      vertex 2.39792 1.20208 7
      vertex 2.1 3.24422 7
      vertex 2.1 0.756214 7
    endloop
  endfacet
  facet normal 0 0 1
    outer loop
      vertex 6.92597 -1.37766 7
      vertex 5.1706 -0.650561 7
      vertex 6.14558 -2.54558 7
    endloop
  endfacet
  facet normal -0 0 1
    outer loop
      vertex 4.80208 -1.20208 7
      vertex 6.14558 -2.54558 7
      vertex 5.1706 -0.650561 7
    endloop
  endfacet
  facet normal 0 0 1
    outer loop
      vertex 6.14558 -2.54558 7
      vertex 4.80208 -1.20208 7
      vertex 4.97766 -3.32597 7
    endloop
  endfacet
  facet normal -0 0 1
    outer loop
      vertex 4.25056 -1.57059 7
      vertex 4.97766 -3.32597 7
      vertex 4.80208 -1.20208 7
    endloop
  endfacet
  facet normal -0 0 1
    outer loop
      vertex 3.6 -1.7 7
      vertex 4.97766 -3.32597 7
      vertex 4.25056 -1.57059 7
    endloop
  endfacet
  facet normal 0 0 1
    outer loop
      vertex 3.6 -1.7 7
      vertex 3.6 -3.6 7
      vertex 4.97766 -3.32597 7
    endloop
  endfacet
  facet normal 0 0 1
    outer loop
      vertex 2.94944 -1.57059 7
      vertex 3.6 -3.6 7
      vertex 3.6 -1.7 7
    endloop
  endfacet
  facet normal 0 0 1
    outer loop
      vertex 2.22234 -3.32597 7
      vertex 2.94944 -1.57059 7
      vertex 2.39792 -1.20208 7
    endloop
  endfacet
  facet normal 0 0 1
    outer loop
      vertex 2.94944 -1.57059 7
      vertex 2.22234 -3.32597 7
      vertex 3.6 -3.6 7
    endloop
  endfacet
  facet normal 0 0 1
    outer loop
      vertex 1.05441 -2.54558 7
      vertex 2.39792 -1.20208 7
      vertex 2.0294 -0.650561 7
    endloop
  endfacet
  facet normal 0 0 1
    outer loop
      vertex 1.05441 -2.54558 7
      vertex 2.0294 -0.650561 7
      vertex 1.9 0 7
    endloop
  endfacet
  facet normal 0 0 1
    outer loop
      vertex 2.39792 -1.20208 7
      vertex 1.05441 -2.54558 7
      vertex 2.22234 -3.32597 7
    endloop
  endfacet
  facet normal -0 0 1
    outer loop
      vertex 1.9 140 7
      vertex 2.1 139.244 7
      vertex 2.1 140 7
    endloop
  endfacet
  facet normal -0 0 1
    outer loop
      vertex 0 140 7
      vertex 2.1 139.244 7
      vertex 1.9 140 7
    endloop
  endfacet
  facet normal 0 0 1
    outer loop
      vertex 2.1 139.244 7
      vertex 0 140 7
      vertex 2.1 136.756 7
    endloop
  endfacet
  facet normal 0 -0 1
    outer loop
      vertex 0.907969 122.192 7
      vertex 2.1 136.756 7
      vertex 0 140 7
    endloop
  endfacet
  facet normal 0 0 1
    outer loop
      vertex 2.0294 140.651 7
      vertex 0.274034 141.378 7
      vertex 1.9 140 7
    endloop
  endfacet
  facet normal 0 0 1
    outer loop
      vertex 2.1 136.756 7
      vertex 1.91368 122.864 7
      vertex 2.1 122.901 7
    endloop
  endfacet
  facet normal 0 0 1
    outer loop
      vertex 1.9 140 7
      vertex 0.274034 141.378 7
      vertex 0 140 7
    endloop
  endfacet
  facet normal 0 0 1
    outer loop
      vertex 2.1 136.756 7
      vertex 0.907969 122.192 7
      vertex 1.91368 122.864 7
    endloop
  endfacet
  facet normal 0 0 1
    outer loop
      vertex 0.907969 122.192 7
      vertex 0 140 7
      vertex 0.235973 121.186 7
    endloop
  endfacet
  facet normal 0 0 1
    outer loop
      vertex 0.235973 121.186 7
      vertex 0 140 7
      vertex 0 120 7
    endloop
  endfacet
  facet normal 0 0 1
    outer loop
      vertex 5.3 140 7
      vertex 7.2 140 7
      vertex 6.92597 141.378 7
    endloop
  endfacet
  facet normal 0 0 1
    outer loop
      vertex 5.1706 140.651 7
      vertex 6.92597 141.378 7
      vertex 6.14558 142.546 7
    endloop
  endfacet
  facet normal 0 0 1
    outer loop
      vertex 7.2 140 7
      vertex 5.3 140 7
      vertex 6.92597 138.622 7
    endloop
  endfacet
  facet normal -0 0 1
    outer loop
      vertex 5.1706 139.349 7
      vertex 6.92597 138.622 7
      vertex 5.3 140 7
    endloop
  endfacet
  facet normal 0 0 1
    outer loop
      vertex 6.92597 141.378 7
      vertex 5.1706 140.651 7
      vertex 5.3 140 7
    endloop
  endfacet
  facet normal 0 0 1
    outer loop
      vertex 4.80208 141.202 7
      vertex 6.14558 142.546 7
      vertex 4.97766 143.326 7
    endloop
  endfacet
  facet normal 0 0 1
    outer loop
      vertex 6.14558 142.546 7
      vertex 4.80208 141.202 7
      vertex 5.1706 140.651 7
    endloop
  endfacet
  facet normal 0 0 1
    outer loop
      vertex 4.97766 143.326 7
      vertex 4.25056 141.571 7
      vertex 4.80208 141.202 7
    endloop
  endfacet
  facet normal 0 0 1
    outer loop
      vertex 3.6 143.6 7
      vertex 4.25056 141.571 7
      vertex 4.97766 143.326 7
    endloop
  endfacet
  facet normal 0 0 1
    outer loop
      vertex 3.6 143.6 7
      vertex 3.6 141.7 7
      vertex 4.25056 141.571 7
    endloop
  endfacet
  facet normal 0 0 1
    outer loop
      vertex 3.6 143.6 7
      vertex 2.94944 141.571 7
      vertex 3.6 141.7 7
    endloop
  endfacet
  facet normal -0 0 1
    outer loop
      vertex 2.22234 143.326 7
      vertex 2.94944 141.571 7
      vertex 3.6 143.6 7
    endloop
  endfacet
  facet normal 0 0 1
    outer loop
      vertex 2.94944 141.571 7
      vertex 2.22234 143.326 7
      vertex 2.39792 141.202 7
    endloop
  endfacet
  facet normal -0 0 1
    outer loop
      vertex 1.05441 142.546 7
      vertex 2.39792 141.202 7
      vertex 2.22234 143.326 7
    endloop
  endfacet
  facet normal 0 0 1
    outer loop
      vertex 2.39792 141.202 7
      vertex 1.05441 142.546 7
      vertex 2.0294 140.651 7
    endloop
  endfacet
  facet normal -0 0 1
    outer loop
      vertex 0.274034 141.378 7
      vertex 2.0294 140.651 7
      vertex 1.05441 142.546 7
    endloop
  endfacet
  facet normal 0 0 1
    outer loop
      vertex 6.92597 138.622 7
      vertex 5.1706 139.349 7
      vertex 6.14558 137.454 7
    endloop
  endfacet
  facet normal -0 0 1
    outer loop
      vertex 4.80208 138.798 7
      vertex 6.14558 137.454 7
      vertex 5.1706 139.349 7
    endloop
  endfacet
  facet normal 0 0 1
    outer loop
      vertex 6.14558 137.454 7
      vertex 4.80208 138.798 7
      vertex 4.97766 136.674 7
    endloop
  endfacet
  facet normal -0 0 1
    outer loop
      vertex 4.25056 138.429 7
      vertex 4.97766 136.674 7
      vertex 4.80208 138.798 7
    endloop
  endfacet
  facet normal -0 0 1
    outer loop
      vertex 3.6 138.3 7
      vertex 4.97766 136.674 7
      vertex 4.25056 138.429 7
    endloop
  endfacet
  facet normal 0 0 1
    outer loop
      vertex 3.6 138.3 7
      vertex 3.6 136.4 7
      vertex 4.97766 136.674 7
    endloop
  endfacet
  facet normal 0 0 1
    outer loop
      vertex 2.94944 138.429 7
      vertex 3.6 136.4 7
      vertex 3.6 138.3 7
    endloop
  endfacet
  facet normal 0 0 1
    outer loop
      vertex 2.1 136.756 7
      vertex 2.94944 138.429 7
      vertex 2.39792 138.798 7
    endloop
  endfacet
  facet normal 0 0 1
    outer loop
      vertex 2.94944 138.429 7
      vertex 2.22234 136.674 7
      vertex 3.6 136.4 7
    endloop
  endfacet
  facet normal 0 0 1
    outer loop
      vertex 2.1 136.756 7
      vertex 2.39792 138.798 7
      vertex 2.1 139.244 7
    endloop
  endfacet
  facet normal 0 0 1
    outer loop
      vertex 2.94944 138.429 7
      vertex 2.1 136.756 7
      vertex 2.22234 136.674 7
    endloop
  endfacet
  facet normal -0.195088 0.980786 0
    outer loop
      vertex 3.6 3.6 0
      vertex 2.22234 3.32597 7
      vertex 3.6 3.6 7
    endloop
  endfacet
  facet normal -0.195088 0.980786 0
    outer loop
      vertex 2.22234 3.32597 7
      vertex 3.6 3.6 0
      vertex 2.22234 3.32597 0
    endloop
  endfacet
  facet normal 0.980786 -0.195088 0
    outer loop
      vertex 6.92597 -1.37766 7
      vertex 7.2 0 0
      vertex 7.2 0 7
    endloop
  endfacet
  facet normal 0.980786 -0.195088 0
    outer loop
      vertex 7.2 0 0
      vertex 6.92597 -1.37766 7
      vertex 6.92597 -1.37766 0
    endloop
  endfacet
  facet normal 0 0 -1
    outer loop
      vertex 1.9 0 0
      vertex 2.1 0.756214 0
      vertex 2.1 0 0
    endloop
  endfacet
  facet normal 0 0 -1
    outer loop
      vertex 0 0 0
      vertex 2.1 0.756214 0
      vertex 1.9 0 0
    endloop
  endfacet
  facet normal -0 0 -1
    outer loop
      vertex 2.1 0.756214 0
      vertex 0 0 0
      vertex 2.1 3.24422 0
    endloop
  endfacet
  facet normal -0 0 -1
    outer loop
      vertex 2.1 3.24422 0
      vertex 0 0 0
      vertex 2.1 17.0989 0
    endloop
  endfacet
  facet normal -0 0 -1
    outer loop
      vertex 2.1 17.0989 0
      vertex 0 0 0
      vertex 2.1 20 0
    endloop
  endfacet
  facet normal -0 0 -1
    outer loop
      vertex 2.1 20 0
      vertex 0 0 0
      vertex 2.1 25 0
    endloop
  endfacet
  facet normal -0 0 -1
    outer loop
      vertex 2.1 25 0
      vertex 0 0 0
      vertex 2.1 27.9011 0
    endloop
  endfacet
  facet normal -0 0 -1
    outer loop
      vertex 2.1 27.9011 0
      vertex 0 0 0
      vertex 2.1 112.099 0
    endloop
  endfacet
  facet normal 0 0 -1
    outer loop
      vertex 0 140 0
      vertex 2.1 112.099 0
      vertex 0 0 0
    endloop
  endfacet
  facet normal 0 0 -1
    outer loop
      vertex 2.1 112.099 0
      vertex 0 140 0
      vertex 2.1 115 0
    endloop
  endfacet
  facet normal 0 0 -1
    outer loop
      vertex 2.1 115 0
      vertex 0 140 0
      vertex 2.1 120 0
    endloop
  endfacet
  facet normal 0 0 -1
    outer loop
      vertex 2.1 120 0
      vertex 0 140 0
      vertex 2.1 122.901 0
    endloop
  endfacet
  facet normal 0 0 -1
    outer loop
      vertex 2.1 122.901 0
      vertex 0 140 0
      vertex 2.1 136.756 0
    endloop
  endfacet
  facet normal 0 0 -1
    outer loop
      vertex 2.1 139.244 0
      vertex 1.9 140 0
      vertex 2.1 140 0
    endloop
  endfacet
  facet normal 0 0 -1
    outer loop
      vertex 5.3 0 0
      vertex 7.2 0 0
      vertex 6.92597 -1.37766 0
    endloop
  endfacet
  facet normal 0 0 -1
    outer loop
      vertex 5.1706 -0.650561 0
      vertex 6.92597 -1.37766 0
      vertex 6.14558 -2.54558 0
    endloop
  endfacet
  facet normal 0 0 -1
    outer loop
      vertex 7.2 0 0
      vertex 5.3 0 0
      vertex 6.92597 1.37766 0
    endloop
  endfacet
  facet normal 0 0 -1
    outer loop
      vertex 5.1706 0.650561 0
      vertex 6.92597 1.37766 0
      vertex 5.3 0 0
    endloop
  endfacet
  facet normal 0 0 -1
    outer loop
      vertex 6.92597 -1.37766 0
      vertex 5.1706 -0.650561 0
      vertex 5.3 0 0
    endloop
  endfacet
  facet normal 0 0 -1
    outer loop
      vertex 4.80208 -1.20208 0
      vertex 6.14558 -2.54558 0
      vertex 4.97766 -3.32597 0
    endloop
  endfacet
  facet normal 0 0 -1
    outer loop
      vertex 6.14558 -2.54558 0
      vertex 4.80208 -1.20208 0
      vertex 5.1706 -0.650561 0
    endloop
  endfacet
  facet normal 0 0 -1
    outer loop
      vertex 4.97766 -3.32597 0
      vertex 4.25056 -1.57059 0
      vertex 4.80208 -1.20208 0
    endloop
  endfacet
  facet normal 0 0 -1
    outer loop
      vertex 3.6 -3.6 0
      vertex 4.25056 -1.57059 0
      vertex 4.97766 -3.32597 0
    endloop
  endfacet
  facet normal 0 0 -1
    outer loop
      vertex 3.6 -3.6 0
      vertex 3.6 -1.7 0
      vertex 4.25056 -1.57059 0
    endloop
  endfacet
  facet normal 0 0 -1
    outer loop
      vertex 3.6 -3.6 0
      vertex 2.94944 -1.57059 0
      vertex 3.6 -1.7 0
    endloop
  endfacet
  facet normal 0 0 -1
    outer loop
      vertex 2.22234 -3.32597 0
      vertex 2.94944 -1.57059 0
      vertex 3.6 -3.6 0
    endloop
  endfacet
  facet normal -0 0 -1
    outer loop
      vertex 2.94944 -1.57059 0
      vertex 2.22234 -3.32597 0
      vertex 2.39792 -1.20208 0
    endloop
  endfacet
  facet normal 0 0 -1
    outer loop
      vertex 1.05441 -2.54558 0
      vertex 2.39792 -1.20208 0
      vertex 2.22234 -3.32597 0
    endloop
  endfacet
  facet normal -0 0 -1
    outer loop
      vertex 2.39792 -1.20208 0
      vertex 1.05441 -2.54558 0
      vertex 2.0294 -0.650561 0
    endloop
  endfacet
  facet normal -0 0 -1
    outer loop
      vertex 2.0294 -0.650561 0
      vertex 0.274034 -1.37766 0
      vertex 1.9 0 0
    endloop
  endfacet
  facet normal 0 0 -1
    outer loop
      vertex 0.274034 -1.37766 0
      vertex 2.0294 -0.650561 0
      vertex 1.05441 -2.54558 0
    endloop
  endfacet
  facet normal -0 0 -1
    outer loop
      vertex 6.92597 1.37766 0
      vertex 5.1706 0.650561 0
      vertex 6.14558 2.54558 0
    endloop
  endfacet
  facet normal 0 0 -1
    outer loop
      vertex 4.80208 1.20208 0
      vertex 6.14558 2.54558 0
      vertex 5.1706 0.650561 0
    endloop
  endfacet
  facet normal -0 0 -1
    outer loop
      vertex 6.14558 2.54558 0
      vertex 4.80208 1.20208 0
      vertex 4.97766 3.32597 0
    endloop
  endfacet
  facet normal 0 0 -1
    outer loop
      vertex 4.25056 1.57059 0
      vertex 4.97766 3.32597 0
      vertex 4.80208 1.20208 0
    endloop
  endfacet
  facet normal 0 0 -1
    outer loop
      vertex 3.6 1.7 0
      vertex 4.97766 3.32597 0
      vertex 4.25056 1.57059 0
    endloop
  endfacet
  facet normal 0 0 -1
    outer loop
      vertex 3.6 1.7 0
      vertex 3.6 3.6 0
      vertex 4.97766 3.32597 0
    endloop
  endfacet
  facet normal 0 0 -1
    outer loop
      vertex 2.94944 1.57059 0
      vertex 3.6 3.6 0
      vertex 3.6 1.7 0
    endloop
  endfacet
  facet normal 0 0 -1
    outer loop
      vertex 2.1 3.24422 0
      vertex 2.94944 1.57059 0
      vertex 2.39792 1.20208 0
    endloop
  endfacet
  facet normal 0 0 -1
    outer loop
      vertex 2.94944 1.57059 0
      vertex 2.22234 3.32597 0
      vertex 3.6 3.6 0
    endloop
  endfacet
  facet normal 0 0 -1
    outer loop
      vertex 2.1 3.24422 0
      vertex 2.39792 1.20208 0
      vertex 2.1 0.756214 0
    endloop
  endfacet
  facet normal 0 0 -1
    outer loop
      vertex 2.94944 1.57059 0
      vertex 2.1 3.24422 0
      vertex 2.22234 3.32597 0
    endloop
  endfacet
  facet normal 0 0 -1
    outer loop
      vertex 4.1 20 0
      vertex 6.2 20 0
      vertex 5.96403 18.8137 0
    endloop
  endfacet
  facet normal 0 0 -1
    outer loop
      vertex 6.2 20 0
      vertex 4.1 20 0
      vertex 6.2 25 0
    endloop
  endfacet
  facet normal 0 0 -1
    outer loop
      vertex 4.02388 19.6173 0
      vertex 5.96403 18.8137 0
      vertex 5.29203 17.808 0
    endloop
  endfacet
  facet normal 0 0 -1
    outer loop
      vertex 4.1 25 0
      vertex 6.2 25 0
      vertex 4.1 20 0
    endloop
  endfacet
  facet normal 0 0 -1
    outer loop
      vertex 3.80711 19.2929 0
      vertex 5.29203 17.808 0
      vertex 4.28632 17.136 0
    endloop
  endfacet
  facet normal 0 0 -1
    outer loop
      vertex 6.2 25 0
      vertex 4.1 25 0
      vertex 5.96403 26.1863 0
    endloop
  endfacet
  facet normal 0 0 -1
    outer loop
      vertex 4.02388 25.3827 0
      vertex 5.96403 26.1863 0
      vertex 4.1 25 0
    endloop
  endfacet
  facet normal 0 0 -1
    outer loop
      vertex 5.96403 18.8137 0
      vertex 4.02388 19.6173 0
      vertex 4.1 20 0
    endloop
  endfacet
  facet normal 0 0 -1
    outer loop
      vertex 5.29203 17.808 0
      vertex 3.80711 19.2929 0
      vertex 4.02388 19.6173 0
    endloop
  endfacet
  facet normal 0 0 -1
    outer loop
      vertex 4.28632 17.136 0
      vertex 3.48268 19.0761 0
      vertex 3.80711 19.2929 0
    endloop
  endfacet
  facet normal 0 0 -1
    outer loop
      vertex 3.1 16.9 0
      vertex 3.48268 19.0761 0
      vertex 4.28632 17.136 0
    endloop
  endfacet
  facet normal 0 0 -1
    outer loop
      vertex 3.1 16.9 0
      vertex 3.1 19 0
      vertex 3.48268 19.0761 0
    endloop
  endfacet
  facet normal 0 0 -1
    outer loop
      vertex 2.1 17.0989 0
      vertex 3.1 19 0
      vertex 3.1 16.9 0
    endloop
  endfacet
  facet normal -0 0 -1
    outer loop
      vertex 3.1 19 0
      vertex 2.1 17.0989 0
      vertex 2.71732 19.0761 0
    endloop
  endfacet
  facet normal -0 0 -1
    outer loop
      vertex 2.71732 19.0761 0
      vertex 2.1 17.0989 0
      vertex 2.39289 19.2929 0
    endloop
  endfacet
  facet normal -0 0 -1
    outer loop
      vertex 2.39289 19.2929 0
      vertex 2.1 17.0989 0
      vertex 2.17612 19.6173 0
    endloop
  endfacet
  facet normal -0 0 -1
    outer loop
      vertex 2.17612 19.6173 0
      vertex 2.1 17.0989 0
      vertex 2.1 20 0
    endloop
  endfacet
  facet normal -0 0 -1
    outer loop
      vertex 5.96403 26.1863 0
      vertex 4.02388 25.3827 0
      vertex 5.29203 27.192 0
    endloop
  endfacet
  facet normal 0 0 -1
    outer loop
      vertex 3.80711 25.7071 0
      vertex 5.29203 27.192 0
      vertex 4.02388 25.3827 0
    endloop
  endfacet
  facet normal -0 0 -1
    outer loop
      vertex 5.29203 27.192 0
      vertex 3.80711 25.7071 0
      vertex 4.28632 27.864 0
    endloop
  endfacet
  facet normal 0 0 -1
    outer loop
      vertex 3.48268 25.9239 0
      vertex 4.28632 27.864 0
      vertex 3.80711 25.7071 0
    endloop
  endfacet
  facet normal 0 0 -1
    outer loop
      vertex 3.1 26 0
      vertex 4.28632 27.864 0
      vertex 3.48268 25.9239 0
    endloop
  endfacet
  facet normal 0 0 -1
    outer loop
      vertex 3.1 26 0
      vertex 3.1 28.1 0
      vertex 4.28632 27.864 0
    endloop
  endfacet
  facet normal 0 0 -1
    outer loop
      vertex 2.1 27.9011 0
      vertex 3.1 26 0
      vertex 2.71732 25.9239 0
    endloop
  endfacet
  facet normal 0 0 -1
    outer loop
      vertex 2.1 27.9011 0
      vertex 2.71732 25.9239 0
      vertex 2.39289 25.7071 0
    endloop
  endfacet
  facet normal 0 0 -1
    outer loop
      vertex 2.1 27.9011 0
      vertex 2.39289 25.7071 0
      vertex 2.17612 25.3827 0
    endloop
  endfacet
  facet normal 0 0 -1
    outer loop
      vertex 3.1 26 0
      vertex 2.1 27.9011 0
      vertex 3.1 28.1 0
    endloop
  endfacet
  facet normal 0 0 -1
    outer loop
      vertex 2.1 27.9011 0
      vertex 2.17612 25.3827 0
      vertex 2.1 25 0
    endloop
  endfacet
  facet normal 0 0 -1
    outer loop
      vertex 4.1 115 0
      vertex 6.2 115 0
      vertex 5.96403 113.814 0
    endloop
  endfacet
  facet normal 0 0 -1
    outer loop
      vertex 6.2 115 0
      vertex 4.1 115 0
      vertex 6.2 120 0
    endloop
  endfacet
  facet normal 0 0 -1
    outer loop
      vertex 4.02388 114.617 0
      vertex 5.96403 113.814 0
      vertex 5.29203 112.808 0
    endloop
  endfacet
  facet normal 0 0 -1
    outer loop
      vertex 4.1 120 0
      vertex 6.2 120 0
      vertex 4.1 115 0
    endloop
  endfacet
  facet normal 0 0 -1
    outer loop
      vertex 3.80711 114.293 0
      vertex 5.29203 112.808 0
      vertex 4.28632 112.136 0
    endloop
  endfacet
  facet normal 0 0 -1
    outer loop
      vertex 6.2 120 0
      vertex 4.1 120 0
      vertex 5.96403 121.186 0
    endloop
  endfacet
  facet normal 0 0 -1
    outer loop
      vertex 4.02388 120.383 0
      vertex 5.96403 121.186 0
      vertex 4.1 120 0
    endloop
  endfacet
  facet normal 0 0 -1
    outer loop
      vertex 5.96403 113.814 0
      vertex 4.02388 114.617 0
      vertex 4.1 115 0
    endloop
  endfacet
  facet normal 0 0 -1
    outer loop
      vertex 5.29203 112.808 0
      vertex 3.80711 114.293 0
      vertex 4.02388 114.617 0
    endloop
  endfacet
  facet normal 0 0 -1
    outer loop
      vertex 4.28632 112.136 0
      vertex 3.48268 114.076 0
      vertex 3.80711 114.293 0
    endloop
  endfacet
  facet normal 0 0 -1
    outer loop
      vertex 3.1 111.9 0
      vertex 3.48268 114.076 0
      vertex 4.28632 112.136 0
    endloop
  endfacet
  facet normal 0 0 -1
    outer loop
      vertex 3.1 111.9 0
      vertex 3.1 114 0
      vertex 3.48268 114.076 0
    endloop
  endfacet
  facet normal 0 0 -1
    outer loop
      vertex 2.1 112.099 0
      vertex 3.1 114 0
      vertex 3.1 111.9 0
    endloop
  endfacet
  facet normal -0 0 -1
    outer loop
      vertex 3.1 114 0
      vertex 2.1 112.099 0
      vertex 2.71732 114.076 0
    endloop
  endfacet
  facet normal -0 0 -1
    outer loop
      vertex 2.71732 114.076 0
      vertex 2.1 112.099 0
      vertex 2.39289 114.293 0
    endloop
  endfacet
  facet normal -0 0 -1
    outer loop
      vertex 2.39289 114.293 0
      vertex 2.1 112.099 0
      vertex 2.17612 114.617 0
    endloop
  endfacet
  facet normal -0 0 -1
    outer loop
      vertex 2.17612 114.617 0
      vertex 2.1 112.099 0
      vertex 2.1 115 0
    endloop
  endfacet
  facet normal -0 0 -1
    outer loop
      vertex 5.96403 121.186 0
      vertex 4.02388 120.383 0
      vertex 5.29203 122.192 0
    endloop
  endfacet
  facet normal 0 0 -1
    outer loop
      vertex 3.80711 120.707 0
      vertex 5.29203 122.192 0
      vertex 4.02388 120.383 0
    endloop
  endfacet
  facet normal -0 0 -1
    outer loop
      vertex 5.29203 122.192 0
      vertex 3.80711 120.707 0
      vertex 4.28632 122.864 0
    endloop
  endfacet
  facet normal 0 0 -1
    outer loop
      vertex 3.48268 120.924 0
      vertex 4.28632 122.864 0
      vertex 3.80711 120.707 0
    endloop
  endfacet
  facet normal 0 0 -1
    outer loop
      vertex 3.1 121 0
      vertex 4.28632 122.864 0
      vertex 3.48268 120.924 0
    endloop
  endfacet
  facet normal 0 0 -1
    outer loop
      vertex 3.1 121 0
      vertex 3.1 123.1 0
      vertex 4.28632 122.864 0
    endloop
  endfacet
  facet normal 0 0 -1
    outer loop
      vertex 2.1 122.901 0
      vertex 3.1 121 0
      vertex 2.71732 120.924 0
    endloop
  endfacet
  facet normal 0 0 -1
    outer loop
      vertex 2.1 122.901 0
      vertex 2.71732 120.924 0
      vertex 2.39289 120.707 0
    endloop
  endfacet
  facet normal 0 0 -1
    outer loop
      vertex 2.1 122.901 0
      vertex 2.39289 120.707 0
      vertex 2.17612 120.383 0
    endloop
  endfacet
  facet normal 0 0 -1
    outer loop
      vertex 3.1 121 0
      vertex 2.1 122.901 0
      vertex 3.1 123.1 0
    endloop
  endfacet
  facet normal 0 0 -1
    outer loop
      vertex 2.1 122.901 0
      vertex 2.17612 120.383 0
      vertex 2.1 120 0
    endloop
  endfacet
  facet normal 0 0 -1
    outer loop
      vertex 5.3 140 0
      vertex 7.2 140 0
      vertex 6.92597 138.622 0
    endloop
  endfacet
  facet normal 0 0 -1
    outer loop
      vertex 5.1706 139.349 0
      vertex 6.92597 138.622 0
      vertex 6.14558 137.454 0
    endloop
  endfacet
  facet normal 0 0 -1
    outer loop
      vertex 7.2 140 0
      vertex 5.3 140 0
      vertex 6.92597 141.378 0
    endloop
  endfacet
  facet normal 0 0 -1
    outer loop
      vertex 5.1706 140.651 0
      vertex 6.92597 141.378 0
      vertex 5.3 140 0
    endloop
  endfacet
  facet normal 0 0 -1
    outer loop
      vertex 6.92597 138.622 0
      vertex 5.1706 139.349 0
      vertex 5.3 140 0
    endloop
  endfacet
  facet normal 0 0 -1
    outer loop
      vertex 4.80208 138.798 0
      vertex 6.14558 137.454 0
      vertex 4.97766 136.674 0
    endloop
  endfacet
  facet normal 0 0 -1
    outer loop
      vertex 6.14558 137.454 0
      vertex 4.80208 138.798 0
      vertex 5.1706 139.349 0
    endloop
  endfacet
  facet normal 0 0 -1
    outer loop
      vertex 4.97766 136.674 0
      vertex 4.25056 138.429 0
      vertex 4.80208 138.798 0
    endloop
  endfacet
  facet normal 0 0 -1
    outer loop
      vertex 3.6 136.4 0
      vertex 4.25056 138.429 0
      vertex 4.97766 136.674 0
    endloop
  endfacet
  facet normal 0 0 -1
    outer loop
      vertex 3.6 136.4 0
      vertex 3.6 138.3 0
      vertex 4.25056 138.429 0
    endloop
  endfacet
  facet normal 0 0 -1
    outer loop
      vertex 3.6 136.4 0
      vertex 2.94944 138.429 0
      vertex 3.6 138.3 0
    endloop
  endfacet
  facet normal 0 0 -1
    outer loop
      vertex 2.22234 136.674 0
      vertex 2.94944 138.429 0
      vertex 3.6 136.4 0
    endloop
  endfacet
  facet normal 0 0 -1
    outer loop
      vertex 2.1 136.756 0
      vertex 2.94944 138.429 0
      vertex 2.22234 136.674 0
    endloop
  endfacet
  facet normal -0 0 -1
    outer loop
      vertex 2.94944 138.429 0
      vertex 2.1 136.756 0
      vertex 2.39792 138.798 0
    endloop
  endfacet
  facet normal -0 0 -1
    outer loop
      vertex 2.39792 138.798 0
      vertex 2.1 136.756 0
      vertex 2.1 139.244 0
    endloop
  endfacet
  facet normal -0 0 -1
    outer loop
      vertex 6.92597 141.378 0
      vertex 5.1706 140.651 0
      vertex 6.14558 142.546 0
    endloop
  endfacet
  facet normal 0 0 -1
    outer loop
      vertex 4.80208 141.202 0
      vertex 6.14558 142.546 0
      vertex 5.1706 140.651 0
    endloop
  endfacet
  facet normal -0 0 -1
    outer loop
      vertex 6.14558 142.546 0
      vertex 4.80208 141.202 0
      vertex 4.97766 143.326 0
    endloop
  endfacet
  facet normal 0 0 -1
    outer loop
      vertex 4.25056 141.571 0
      vertex 4.97766 143.326 0
      vertex 4.80208 141.202 0
    endloop
  endfacet
  facet normal 0 0 -1
    outer loop
      vertex 3.6 141.7 0
      vertex 4.97766 143.326 0
      vertex 4.25056 141.571 0
    endloop
  endfacet
  facet normal 0 0 -1
    outer loop
      vertex 3.6 141.7 0
      vertex 3.6 143.6 0
      vertex 4.97766 143.326 0
    endloop
  endfacet
  facet normal 0 0 -1
    outer loop
      vertex 2.94944 141.571 0
      vertex 3.6 143.6 0
      vertex 3.6 141.7 0
    endloop
  endfacet
  facet normal 0 0 -1
    outer loop
      vertex 2.22234 143.326 0
      vertex 2.94944 141.571 0
      vertex 2.39792 141.202 0
    endloop
  endfacet
  facet normal 0 0 -1
    outer loop
      vertex 2.94944 141.571 0
      vertex 2.22234 143.326 0
      vertex 3.6 143.6 0
    endloop
  endfacet
  facet normal 0 0 -1
    outer loop
      vertex 1.05441 142.546 0
      vertex 2.39792 141.202 0
      vertex 2.0294 140.651 0
    endloop
  endfacet
  facet normal 0 0 -1
    outer loop
      vertex 0.274034 141.378 0
      vertex 2.0294 140.651 0
      vertex 1.9 140 0
    endloop
  endfacet
  facet normal 0 0 -1
    outer loop
      vertex 2.39792 141.202 0
      vertex 1.05441 142.546 0
      vertex 2.22234 143.326 0
    endloop
  endfacet
  facet normal 0 0 -1
    outer loop
      vertex 2.1 136.756 0
      vertex 0 140 0
      vertex 2.1 139.244 0
    endloop
  endfacet
  facet normal -0 0 -1
    outer loop
      vertex 1.9 0 0
      vertex 0.274034 -1.37766 0
      vertex 0 0 0
    endloop
  endfacet
  facet normal 0 0 -1
    outer loop
      vertex 2.1 139.244 0
      vertex 0 140 0
      vertex 1.9 140 0
    endloop
  endfacet
  facet normal 0 -0 -1
    outer loop
      vertex 0.274034 141.378 0
      vertex 1.9 140 0
      vertex 0 140 0
    endloop
  endfacet
  facet normal 0 0 -1
    outer loop
      vertex 2.0294 140.651 0
      vertex 0.274034 141.378 0
      vertex 1.05441 142.546 0
    endloop
  endfacet
  facet normal 0.555576 -0.831466 0
    outer loop
      vertex 4.97766 -3.32597 0
      vertex 6.14558 -2.54558 7
      vertex 4.97766 -3.32597 7
    endloop
  endfacet
  facet normal 0.555576 -0.831466 0
    outer loop
      vertex 6.14558 -2.54558 7
      vertex 4.97766 -3.32597 0
      vertex 6.14558 -2.54558 0
    endloop
  endfacet
  facet normal -0.555572 -0.831468 0
    outer loop
      vertex 1.05441 -2.54558 0
      vertex 2.22234 -3.32597 7
      vertex 1.05441 -2.54558 7
    endloop
  endfacet
  facet normal -0.555572 -0.831468 -0
    outer loop
      vertex 2.22234 -3.32597 7
      vertex 1.05441 -2.54558 0
      vertex 2.22234 -3.32597 0
    endloop
  endfacet
  facet normal -0.831471 -0.555569 0
    outer loop
      vertex 1.05441 -2.54558 0
      vertex 0.274034 -1.37766 7
      vertex 0.274034 -1.37766 0
    endloop
  endfacet
  facet normal -0.831471 -0.555569 0
    outer loop
      vertex 0.274034 -1.37766 7
      vertex 1.05441 -2.54558 0
      vertex 1.05441 -2.54558 7
    endloop
  endfacet
  facet normal -0.980785 -0.195091 0
    outer loop
      vertex 0.274034 -1.37766 0
      vertex 0 0 7
      vertex 0 0 0
    endloop
  endfacet
  facet normal -0.980785 -0.195091 0
    outer loop
      vertex 0 0 7
      vertex 0.274034 -1.37766 0
      vertex 0.274034 -1.37766 7
    endloop
  endfacet
  facet normal -0.195088 -0.980786 0
    outer loop
      vertex 2.22234 -3.32597 0
      vertex 3.6 -3.6 7
      vertex 2.22234 -3.32597 7
    endloop
  endfacet
  facet normal -0.195088 -0.980786 -0
    outer loop
      vertex 3.6 -3.6 7
      vertex 2.22234 -3.32597 0
      vertex 3.6 -3.6 0
    endloop
  endfacet
  facet normal 0.980795 0.195042 0
    outer loop
      vertex 7.2 140 7
      vertex 6.92597 141.378 0
      vertex 6.92597 141.378 7
    endloop
  endfacet
  facet normal 0.980795 0.195042 0
    outer loop
      vertex 6.92597 141.378 0
      vertex 7.2 140 7
      vertex 7.2 140 0
    endloop
  endfacet
  facet normal 0.195067 0.98079 -0
    outer loop
      vertex 4.97766 143.326 0
      vertex 3.6 143.6 7
      vertex 4.97766 143.326 7
    endloop
  endfacet
  facet normal 0.195067 0.98079 0
    outer loop
      vertex 3.6 143.6 7
      vertex 4.97766 143.326 0
      vertex 3.6 143.6 0
    endloop
  endfacet
  facet normal 0.195067 -0.98079 0
    outer loop
      vertex 3.6 136.4 0
      vertex 4.97766 136.674 7
      vertex 3.6 136.4 7
    endloop
  endfacet
  facet normal 0.195067 -0.98079 0
    outer loop
      vertex 4.97766 136.674 7
      vertex 3.6 136.4 0
      vertex 4.97766 136.674 0
    endloop
  endfacet
  facet normal 0.555384 0.831594 -0
    outer loop
      vertex 6.14558 142.546 0
      vertex 4.97766 143.326 7
      vertex 6.14558 142.546 7
    endloop
  endfacet
  facet normal 0.555384 0.831594 0
    outer loop
      vertex 4.97766 143.326 7
      vertex 6.14558 142.546 0
      vertex 4.97766 143.326 0
    endloop
  endfacet
  facet normal 0.831484 0.555549 0
    outer loop
      vertex 6.92597 141.378 7
      vertex 6.14558 142.546 0
      vertex 6.14558 142.546 7
    endloop
  endfacet
  facet normal 0.831484 0.555549 0
    outer loop
      vertex 6.14558 142.546 0
      vertex 6.92597 141.378 7
      vertex 6.92597 141.378 0
    endloop
  endfacet
  facet normal -0.195067 0.98079 0
    outer loop
      vertex 3.6 143.6 0
      vertex 2.22234 143.326 7
      vertex 3.6 143.6 7
    endloop
  endfacet
  facet normal -0.195067 0.98079 0
    outer loop
      vertex 2.22234 143.326 7
      vertex 3.6 143.6 0
      vertex 2.22234 143.326 0
    endloop
  endfacet
  facet normal -0.55538 0.831597 0
    outer loop
      vertex 2.22234 143.326 0
      vertex 1.05441 142.546 7
      vertex 2.22234 143.326 7
    endloop
  endfacet
  facet normal -0.55538 0.831597 0
    outer loop
      vertex 1.05441 142.546 7
      vertex 2.22234 143.326 0
      vertex 1.05441 142.546 0
    endloop
  endfacet
  facet normal -0.831488 0.555542 0
    outer loop
      vertex 0.274034 141.378 0
      vertex 1.05441 142.546 7
      vertex 1.05441 142.546 0
    endloop
  endfacet
  facet normal -0.831488 0.555542 0
    outer loop
      vertex 1.05441 142.546 7
      vertex 0.274034 141.378 0
      vertex 0.274034 141.378 7
    endloop
  endfacet
  facet normal 0.980795 -0.195042 0
    outer loop
      vertex 6.92597 138.622 7
      vertex 7.2 140 0
      vertex 7.2 140 7
    endloop
  endfacet
  facet normal 0.980795 -0.195042 0
    outer loop
      vertex 7.2 140 0
      vertex 6.92597 138.622 7
      vertex 6.92597 138.622 0
    endloop
  endfacet
  facet normal 0.555384 -0.831594 0
    outer loop
      vertex 4.97766 136.674 0
      vertex 6.14558 137.454 7
      vertex 4.97766 136.674 7
    endloop
  endfacet
  facet normal 0.555384 -0.831594 0
    outer loop
      vertex 6.14558 137.454 7
      vertex 4.97766 136.674 0
      vertex 6.14558 137.454 0
    endloop
  endfacet
  facet normal 0.831484 -0.555549 0
    outer loop
      vertex 6.14558 137.454 7
      vertex 6.92597 138.622 0
      vertex 6.92597 138.622 7
    endloop
  endfacet
  facet normal 0.831484 -0.555549 0
    outer loop
      vertex 6.92597 138.622 0
      vertex 6.14558 137.454 7
      vertex 6.14558 137.454 0
    endloop
  endfacet
  facet normal -0.195067 -0.98079 0
    outer loop
      vertex 2.22234 136.674 0
      vertex 3.6 136.4 7
      vertex 2.22234 136.674 7
    endloop
  endfacet
  facet normal -0.195067 -0.98079 -0
    outer loop
      vertex 3.6 136.4 7
      vertex 2.22234 136.674 0
      vertex 3.6 136.4 0
    endloop
  endfacet
  facet normal -0.556767 -0.830669 0
    outer loop
      vertex 2.1 136.756 0
      vertex 2.22234 136.674 7
      vertex 2.1 136.756 7
    endloop
  endfacet
  facet normal -0.556767 -0.830669 -0
    outer loop
      vertex 2.22234 136.674 7
      vertex 2.1 136.756 0
      vertex 2.22234 136.674 0
    endloop
  endfacet
  facet normal -0.980794 0.195044 0
    outer loop
      vertex 0 140 0
      vertex 0.274034 141.378 7
      vertex 0.274034 141.378 0
    endloop
  endfacet
  facet normal -0.980794 0.195044 0
    outer loop
      vertex 0.274034 141.378 7
      vertex 0 140 0
      vertex 0 140 7
    endloop
  endfacet
  facet normal -0.980787 -0.195084 0
    outer loop
      vertex 5.3 0 0
      vertex 5.1706 0.650561 7
      vertex 5.1706 0.650561 0
    endloop
  endfacet
  facet normal -0.980787 -0.195084 0
    outer loop
      vertex 5.1706 0.650561 7
      vertex 5.3 0 0
      vertex 5.3 0 7
    endloop
  endfacet
  facet normal -0.195098 -0.980784 0
    outer loop
      vertex 3.6 1.7 0
      vertex 4.25056 1.57059 7
      vertex 3.6 1.7 7
    endloop
  endfacet
  facet normal -0.195098 -0.980784 -0
    outer loop
      vertex 4.25056 1.57059 7
      vertex 3.6 1.7 0
      vertex 4.25056 1.57059 0
    endloop
  endfacet
  facet normal 0.195098 0.980784 -0
    outer loop
      vertex 3.6 -1.7 0
      vertex 2.94944 -1.57059 7
      vertex 3.6 -1.7 7
    endloop
  endfacet
  facet normal 0.195098 0.980784 0
    outer loop
      vertex 2.94944 -1.57059 7
      vertex 3.6 -1.7 0
      vertex 2.94944 -1.57059 0
    endloop
  endfacet
  facet normal -0.555566 -0.831472 0
    outer loop
      vertex 4.25056 1.57059 0
      vertex 4.80208 1.20208 7
      vertex 4.25056 1.57059 7
    endloop
  endfacet
  facet normal -0.555566 -0.831472 -0
    outer loop
      vertex 4.80208 1.20208 7
      vertex 4.25056 1.57059 0
      vertex 4.80208 1.20208 0
    endloop
  endfacet
  facet normal -0.831465 -0.555577 0
    outer loop
      vertex 5.1706 0.650561 0
      vertex 4.80208 1.20208 7
      vertex 4.80208 1.20208 0
    endloop
  endfacet
  facet normal -0.831465 -0.555577 0
    outer loop
      vertex 4.80208 1.20208 7
      vertex 5.1706 0.650561 0
      vertex 5.1706 0.650561 7
    endloop
  endfacet
  facet normal 0.195098 -0.980784 0
    outer loop
      vertex 2.94944 1.57059 0
      vertex 3.6 1.7 7
      vertex 2.94944 1.57059 7
    endloop
  endfacet
  facet normal 0.195098 -0.980784 0
    outer loop
      vertex 3.6 1.7 7
      vertex 2.94944 1.57059 0
      vertex 3.6 1.7 0
    endloop
  endfacet
  facet normal 0.831468 -0.555573 0
    outer loop
      vertex 2.1 0.756214 7
      vertex 2.39792 1.20208 0
      vertex 2.39792 1.20208 7
    endloop
  endfacet
  facet normal 0.831468 -0.555573 0
    outer loop
      vertex 2.39792 1.20208 0
      vertex 2.1 0.756214 7
      vertex 2.1 0.756214 0
    endloop
  endfacet
  facet normal 0.555566 -0.831472 0
    outer loop
      vertex 2.39792 1.20208 0
      vertex 2.94944 1.57059 7
      vertex 2.39792 1.20208 7
    endloop
  endfacet
  facet normal 0.555566 -0.831472 0
    outer loop
      vertex 2.94944 1.57059 7
      vertex 2.39792 1.20208 0
      vertex 2.94944 1.57059 0
    endloop
  endfacet
  facet normal -0.980787 0.195084 0
    outer loop
      vertex 5.1706 -0.650561 0
      vertex 5.3 0 7
      vertex 5.3 0 0
    endloop
  endfacet
  facet normal -0.980787 0.195084 0
    outer loop
      vertex 5.3 0 7
      vertex 5.1706 -0.650561 0
      vertex 5.1706 -0.650561 7
    endloop
  endfacet
  facet normal -0.195098 0.980784 0
    outer loop
      vertex 4.25056 -1.57059 0
      vertex 3.6 -1.7 7
      vertex 4.25056 -1.57059 7
    endloop
  endfacet
  facet normal -0.195098 0.980784 0
    outer loop
      vertex 3.6 -1.7 7
      vertex 4.25056 -1.57059 0
      vertex 3.6 -1.7 0
    endloop
  endfacet
  facet normal -0.555566 0.831472 0
    outer loop
      vertex 4.80208 -1.20208 0
      vertex 4.25056 -1.57059 7
      vertex 4.80208 -1.20208 7
    endloop
  endfacet
  facet normal -0.555566 0.831472 0
    outer loop
      vertex 4.25056 -1.57059 7
      vertex 4.80208 -1.20208 0
      vertex 4.25056 -1.57059 0
    endloop
  endfacet
  facet normal 0.980787 0.195084 0
    outer loop
      vertex 2.0294 -0.650561 7
      vertex 1.9 0 0
      vertex 1.9 0 7
    endloop
  endfacet
  facet normal 0.980787 0.195084 0
    outer loop
      vertex 1.9 0 0
      vertex 2.0294 -0.650561 7
      vertex 2.0294 -0.650561 0
    endloop
  endfacet
  facet normal 0.555566 0.831472 -0
    outer loop
      vertex 2.94944 -1.57059 0
      vertex 2.39792 -1.20208 7
      vertex 2.94944 -1.57059 7
    endloop
  endfacet
  facet normal 0.555566 0.831472 0
    outer loop
      vertex 2.39792 -1.20208 7
      vertex 2.94944 -1.57059 0
      vertex 2.39792 -1.20208 0
    endloop
  endfacet
  facet normal 0.831465 0.555577 0
    outer loop
      vertex 2.39792 -1.20208 7
      vertex 2.0294 -0.650561 0
      vertex 2.0294 -0.650561 7
    endloop
  endfacet
  facet normal 0.831465 0.555577 0
    outer loop
      vertex 2.0294 -0.650561 0
      vertex 2.39792 -1.20208 7
      vertex 2.39792 -1.20208 0
    endloop
  endfacet
  facet normal -0.831465 0.555577 0
    outer loop
      vertex 4.80208 -1.20208 0
      vertex 5.1706 -0.650561 7
      vertex 5.1706 -0.650561 0
    endloop
  endfacet
  facet normal -0.831465 0.555577 0
    outer loop
      vertex 5.1706 -0.650561 7
      vertex 4.80208 -1.20208 0
      vertex 4.80208 -1.20208 7
    endloop
  endfacet
  facet normal -0.980812 -0.194957 0
    outer loop
      vertex 5.3 140 0
      vertex 5.1706 140.651 7
      vertex 5.1706 140.651 0
    endloop
  endfacet
  facet normal -0.980812 -0.194957 0
    outer loop
      vertex 5.1706 140.651 7
      vertex 5.3 140 0
      vertex 5.3 140 7
    endloop
  endfacet
  facet normal 0.980812 -0.194957 0
    outer loop
      vertex 1.9 140 7
      vertex 2.0294 140.651 0
      vertex 2.0294 140.651 7
    endloop
  endfacet
  facet normal 0.980812 -0.194957 0
    outer loop
      vertex 2.0294 140.651 0
      vertex 1.9 140 7
      vertex 1.9 140 0
    endloop
  endfacet
  facet normal -0.194504 -0.980902 0
    outer loop
      vertex 3.6 141.7 0
      vertex 4.25056 141.571 7
      vertex 3.6 141.7 7
    endloop
  endfacet
  facet normal -0.194504 -0.980902 -0
    outer loop
      vertex 4.25056 141.571 7
      vertex 3.6 141.7 0
      vertex 4.25056 141.571 0
    endloop
  endfacet
  facet normal 0.194504 0.980902 -0
    outer loop
      vertex 3.6 138.3 0
      vertex 2.94944 138.429 7
      vertex 3.6 138.3 7
    endloop
  endfacet
  facet normal 0.194504 0.980902 0
    outer loop
      vertex 2.94944 138.429 7
      vertex 3.6 138.3 0
      vertex 2.94944 138.429 0
    endloop
  endfacet
  facet normal -0.556077 -0.831131 0
    outer loop
      vertex 4.25056 141.571 0
      vertex 4.80208 141.202 7
      vertex 4.25056 141.571 7
    endloop
  endfacet
  facet normal -0.556077 -0.831131 -0
    outer loop
      vertex 4.80208 141.202 7
      vertex 4.25056 141.571 0
      vertex 4.80208 141.202 0
    endloop
  endfacet
  facet normal -0.831223 -0.555939 0
    outer loop
      vertex 5.1706 140.651 0
      vertex 4.80208 141.202 7
      vertex 4.80208 141.202 0
    endloop
  endfacet
  facet normal -0.831223 -0.555939 0
    outer loop
      vertex 4.80208 141.202 7
      vertex 5.1706 140.651 0
      vertex 5.1706 140.651 7
    endloop
  endfacet
  facet normal 0.556077 -0.831131 0
    outer loop
      vertex 2.39792 141.202 0
      vertex 2.94944 141.571 7
      vertex 2.39792 141.202 7
    endloop
  endfacet
  facet normal 0.556077 -0.831131 0
    outer loop
      vertex 2.94944 141.571 7
      vertex 2.39792 141.202 0
      vertex 2.94944 141.571 0
    endloop
  endfacet
  facet normal 0.831223 -0.555939 0
    outer loop
      vertex 2.0294 140.651 7
      vertex 2.39792 141.202 0
      vertex 2.39792 141.202 7
    endloop
  endfacet
  facet normal 0.831223 -0.555939 0
    outer loop
      vertex 2.39792 141.202 0
      vertex 2.0294 140.651 7
      vertex 2.0294 140.651 0
    endloop
  endfacet
  facet normal 0.194504 -0.980902 0
    outer loop
      vertex 2.94944 141.571 0
      vertex 3.6 141.7 7
      vertex 2.94944 141.571 7
    endloop
  endfacet
  facet normal 0.194504 -0.980902 0
    outer loop
      vertex 3.6 141.7 7
      vertex 2.94944 141.571 0
      vertex 3.6 141.7 0
    endloop
  endfacet
  facet normal -0.980812 0.194957 0
    outer loop
      vertex 5.1706 139.349 0
      vertex 5.3 140 7
      vertex 5.3 140 0
    endloop
  endfacet
  facet normal -0.980812 0.194957 0
    outer loop
      vertex 5.3 140 7
      vertex 5.1706 139.349 0
      vertex 5.1706 139.349 7
    endloop
  endfacet
  facet normal -0.194504 0.980902 0
    outer loop
      vertex 4.25056 138.429 0
      vertex 3.6 138.3 7
      vertex 4.25056 138.429 7
    endloop
  endfacet
  facet normal -0.194504 0.980902 0
    outer loop
      vertex 3.6 138.3 7
      vertex 4.25056 138.429 0
      vertex 3.6 138.3 0
    endloop
  endfacet
  facet normal 0.556077 0.831131 -0
    outer loop
      vertex 2.94944 138.429 0
      vertex 2.39792 138.798 7
      vertex 2.94944 138.429 7
    endloop
  endfacet
  facet normal 0.556077 0.831131 0
    outer loop
      vertex 2.39792 138.798 7
      vertex 2.94944 138.429 0
      vertex 2.39792 138.798 0
    endloop
  endfacet
  facet normal -0.556077 0.831131 0
    outer loop
      vertex 4.80208 138.798 0
      vertex 4.25056 138.429 7
      vertex 4.80208 138.798 7
    endloop
  endfacet
  facet normal -0.556077 0.831131 0
    outer loop
      vertex 4.25056 138.429 7
      vertex 4.80208 138.798 0
      vertex 4.25056 138.429 0
    endloop
  endfacet
  facet normal 0.831545 0.555457 0
    outer loop
      vertex 2.39792 138.798 7
      vertex 2.1 139.244 0
      vertex 2.1 139.244 7
    endloop
  endfacet
  facet normal 0.831545 0.555457 0
    outer loop
      vertex 2.1 139.244 0
      vertex 2.39792 138.798 7
      vertex 2.39792 138.798 0
    endloop
  endfacet
  facet normal -0.831223 0.555939 0
    outer loop
      vertex 4.80208 138.798 0
      vertex 5.1706 139.349 7
      vertex 5.1706 139.349 0
    endloop
  endfacet
  facet normal -0.831223 0.555939 0
    outer loop
      vertex 5.1706 139.349 7
      vertex 4.80208 138.798 0
      vertex 4.80208 138.798 7
    endloop
  endfacet
  facet normal -1 0 0
    outer loop
      vertex 0 140 0
      vertex 0 120 7
      vertex 0 140 7
    endloop
  endfacet
  facet normal -1 0 0
    outer loop
      vertex 0 120 7
      vertex 0 20 7
      vertex 0 120 14
    endloop
  endfacet
  facet normal -1 0 0
    outer loop
      vertex 0 140 0
      vertex 0 20 7
      vertex 0 120 7
    endloop
  endfacet
  facet normal -1 0 0
    outer loop
      vertex 0 0 0
      vertex 0 20 7
      vertex 0 140 0
    endloop
  endfacet
  facet normal -1 -0 0
    outer loop
      vertex 0 20 7
      vertex 0 0 0
      vertex 0 0 7
    endloop
  endfacet
  facet normal -1 -0 0
    outer loop
      vertex 0 120 14
      vertex 0 20 7
      vertex 0 20 14
    endloop
  endfacet
  facet normal 0.555574 0.831467 -0
    outer loop
      vertex 5.29203 27.192 0
      vertex 4.28632 27.864 14
      vertex 5.29203 27.192 14
    endloop
  endfacet
  facet normal 0.555574 0.831467 0
    outer loop
      vertex 4.28632 27.864 14
      vertex 5.29203 27.192 0
      vertex 4.28632 27.864 0
    endloop
  endfacet
  facet normal -0.980785 -0.195093 0
    outer loop
      vertex 0.235973 18.8137 7
      vertex 0 20 14
      vertex 0 20 7
    endloop
  endfacet
  facet normal -0.980785 -0.195093 0
    outer loop
      vertex 0 20 14
      vertex 0.235973 18.8137 7
      vertex 0.235973 18.8137 14
    endloop
  endfacet
  facet normal 0 0 1
    outer loop
      vertex 4.1 120 14
      vertex 6.2 120 14
      vertex 5.96403 121.186 14
    endloop
  endfacet
  facet normal 0 0 1
    outer loop
      vertex 6.2 120 14
      vertex 4.1 120 14
      vertex 6.2 115 14
    endloop
  endfacet
  facet normal 0 0 1
    outer loop
      vertex 4.02388 120.383 14
      vertex 5.96403 121.186 14
      vertex 5.29203 122.192 14
    endloop
  endfacet
  facet normal 0 0 1
    outer loop
      vertex 4.1 115 14
      vertex 6.2 115 14
      vertex 4.1 120 14
    endloop
  endfacet
  facet normal 0 0 1
    outer loop
      vertex 3.80711 120.707 14
      vertex 5.29203 122.192 14
      vertex 4.28632 122.864 14
    endloop
  endfacet
  facet normal 0 0 1
    outer loop
      vertex 6.2 115 14
      vertex 4.1 115 14
      vertex 5.96403 113.814 14
    endloop
  endfacet
  facet normal -0 0 1
    outer loop
      vertex 4.02388 114.617 14
      vertex 5.96403 113.814 14
      vertex 4.1 115 14
    endloop
  endfacet
  facet normal 0 0 1
    outer loop
      vertex 5.96403 121.186 14
      vertex 4.02388 120.383 14
      vertex 4.1 120 14
    endloop
  endfacet
  facet normal 0 0 1
    outer loop
      vertex 5.29203 122.192 14
      vertex 3.80711 120.707 14
      vertex 4.02388 120.383 14
    endloop
  endfacet
  facet normal 0 0 1
    outer loop
      vertex 4.28632 122.864 14
      vertex 3.48268 120.924 14
      vertex 3.80711 120.707 14
    endloop
  endfacet
  facet normal 0 0 1
    outer loop
      vertex 3.1 123.1 14
      vertex 3.48268 120.924 14
      vertex 4.28632 122.864 14
    endloop
  endfacet
  facet normal 0 0 1
    outer loop
      vertex 3.1 123.1 14
      vertex 3.1 121 14
      vertex 3.48268 120.924 14
    endloop
  endfacet
  facet normal 0 0 1
    outer loop
      vertex 3.1 123.1 14
      vertex 2.71732 120.924 14
      vertex 3.1 121 14
    endloop
  endfacet
  facet normal -0 0 1
    outer loop
      vertex 1.91368 122.864 14
      vertex 2.71732 120.924 14
      vertex 3.1 123.1 14
    endloop
  endfacet
  facet normal 0 0 1
    outer loop
      vertex 2.71732 120.924 14
      vertex 1.91368 122.864 14
      vertex 2.39289 120.707 14
    endloop
  endfacet
  facet normal -0 0 1
    outer loop
      vertex 0 120 14
      vertex 2.1 115 14
      vertex 2.1 120 14
    endloop
  endfacet
  facet normal 0 0 1
    outer loop
      vertex 2.1 115 14
      vertex 0 120 14
      vertex 2.1 112.099 14
    endloop
  endfacet
  facet normal 0 0 1
    outer loop
      vertex 2.1 112.099 14
      vertex 0 120 14
      vertex 2.1 27.9011 14
    endloop
  endfacet
  facet normal 0 0 1
    outer loop
      vertex 0 20 14
      vertex 2.1 27.9011 14
      vertex 0 120 14
    endloop
  endfacet
  facet normal -0 0 1
    outer loop
      vertex 0.235973 121.186 14
      vertex 2.17612 120.383 14
      vertex 0.907969 122.192 14
    endloop
  endfacet
  facet normal 0 0 1
    outer loop
      vertex 2.39289 120.707 14
      vertex 0.907969 122.192 14
      vertex 2.17612 120.383 14
    endloop
  endfacet
  facet normal -0 0 1
    outer loop
      vertex 0.907969 122.192 14
      vertex 2.39289 120.707 14
      vertex 1.91368 122.864 14
    endloop
  endfacet
  facet normal 0 0 1
    outer loop
      vertex 5.96403 113.814 14
      vertex 4.02388 114.617 14
      vertex 5.29203 112.808 14
    endloop
  endfacet
  facet normal -0 0 1
    outer loop
      vertex 3.80711 114.293 14
      vertex 5.29203 112.808 14
      vertex 4.02388 114.617 14
    endloop
  endfacet
  facet normal 0 0 1
    outer loop
      vertex 5.29203 112.808 14
      vertex 3.80711 114.293 14
      vertex 4.28632 112.136 14
    endloop
  endfacet
  facet normal -0 0 1
    outer loop
      vertex 3.48268 114.076 14
      vertex 4.28632 112.136 14
      vertex 3.80711 114.293 14
    endloop
  endfacet
  facet normal -0 0 1
    outer loop
      vertex 3.1 114 14
      vertex 4.28632 112.136 14
      vertex 3.48268 114.076 14
    endloop
  endfacet
  facet normal 0 0 1
    outer loop
      vertex 3.1 114 14
      vertex 3.1 111.9 14
      vertex 4.28632 112.136 14
    endloop
  endfacet
  facet normal 0 0 1
    outer loop
      vertex 2.1 112.099 14
      vertex 3.1 114 14
      vertex 2.71732 114.076 14
    endloop
  endfacet
  facet normal 0 0 1
    outer loop
      vertex 2.1 112.099 14
      vertex 2.71732 114.076 14
      vertex 2.39289 114.293 14
    endloop
  endfacet
  facet normal 0 0 1
    outer loop
      vertex 2.1 112.099 14
      vertex 2.39289 114.293 14
      vertex 2.17612 114.617 14
    endloop
  endfacet
  facet normal 0 0 1
    outer loop
      vertex 3.1 114 14
      vertex 2.1 112.099 14
      vertex 3.1 111.9 14
    endloop
  endfacet
  facet normal 0 0 1
    outer loop
      vertex 2.1 112.099 14
      vertex 2.17612 114.617 14
      vertex 2.1 115 14
    endloop
  endfacet
  facet normal 0 0 1
    outer loop
      vertex 4.1 25 14
      vertex 6.2 25 14
      vertex 5.96403 26.1863 14
    endloop
  endfacet
  facet normal 0 0 1
    outer loop
      vertex 6.2 25 14
      vertex 4.1 25 14
      vertex 6.2 20 14
    endloop
  endfacet
  facet normal 0 0 1
    outer loop
      vertex 4.02388 25.3827 14
      vertex 5.96403 26.1863 14
      vertex 5.29203 27.192 14
    endloop
  endfacet
  facet normal 0 0 1
    outer loop
      vertex 4.1 20 14
      vertex 6.2 20 14
      vertex 4.1 25 14
    endloop
  endfacet
  facet normal 0 0 1
    outer loop
      vertex 3.80711 25.7071 14
      vertex 5.29203 27.192 14
      vertex 4.28632 27.864 14
    endloop
  endfacet
  facet normal 0 0 1
    outer loop
      vertex 6.2 20 14
      vertex 4.1 20 14
      vertex 5.96403 18.8137 14
    endloop
  endfacet
  facet normal -0 0 1
    outer loop
      vertex 4.02388 19.6173 14
      vertex 5.96403 18.8137 14
      vertex 4.1 20 14
    endloop
  endfacet
  facet normal 0 0 1
    outer loop
      vertex 5.96403 26.1863 14
      vertex 4.02388 25.3827 14
      vertex 4.1 25 14
    endloop
  endfacet
  facet normal 0 0 1
    outer loop
      vertex 5.29203 27.192 14
      vertex 3.80711 25.7071 14
      vertex 4.02388 25.3827 14
    endloop
  endfacet
  facet normal 0 0 1
    outer loop
      vertex 4.28632 27.864 14
      vertex 3.48268 25.9239 14
      vertex 3.80711 25.7071 14
    endloop
  endfacet
  facet normal 0 0 1
    outer loop
      vertex 3.1 28.1 14
      vertex 3.48268 25.9239 14
      vertex 4.28632 27.864 14
    endloop
  endfacet
  facet normal 0 0 1
    outer loop
      vertex 3.1 28.1 14
      vertex 3.1 26 14
      vertex 3.48268 25.9239 14
    endloop
  endfacet
  facet normal -0 0 1
    outer loop
      vertex 2.1 27.9011 14
      vertex 3.1 26 14
      vertex 3.1 28.1 14
    endloop
  endfacet
  facet normal 0 0 1
    outer loop
      vertex 3.1 26 14
      vertex 2.1 27.9011 14
      vertex 2.71732 25.9239 14
    endloop
  endfacet
  facet normal 0 0 1
    outer loop
      vertex 2.71732 25.9239 14
      vertex 2.1 27.9011 14
      vertex 2.39289 25.7071 14
    endloop
  endfacet
  facet normal 0 0 1
    outer loop
      vertex 2.39289 25.7071 14
      vertex 2.1 27.9011 14
      vertex 2.17612 25.3827 14
    endloop
  endfacet
  facet normal 0 0 1
    outer loop
      vertex 2.17612 25.3827 14
      vertex 2.1 27.9011 14
      vertex 2.1 25 14
    endloop
  endfacet
  facet normal 0 0 1
    outer loop
      vertex 5.96403 18.8137 14
      vertex 4.02388 19.6173 14
      vertex 5.29203 17.808 14
    endloop
  endfacet
  facet normal -0 0 1
    outer loop
      vertex 3.80711 19.2929 14
      vertex 5.29203 17.808 14
      vertex 4.02388 19.6173 14
    endloop
  endfacet
  facet normal 0 0 1
    outer loop
      vertex 5.29203 17.808 14
      vertex 3.80711 19.2929 14
      vertex 4.28632 17.136 14
    endloop
  endfacet
  facet normal -0 0 1
    outer loop
      vertex 3.48268 19.0761 14
      vertex 4.28632 17.136 14
      vertex 3.80711 19.2929 14
    endloop
  endfacet
  facet normal -0 0 1
    outer loop
      vertex 3.1 19 14
      vertex 4.28632 17.136 14
      vertex 3.48268 19.0761 14
    endloop
  endfacet
  facet normal 0 0 1
    outer loop
      vertex 3.1 19 14
      vertex 3.1 16.9 14
      vertex 4.28632 17.136 14
    endloop
  endfacet
  facet normal 0 0 1
    outer loop
      vertex 2.71732 19.0761 14
      vertex 3.1 16.9 14
      vertex 3.1 19 14
    endloop
  endfacet
  facet normal 0 0 1
    outer loop
      vertex 1.91368 17.136 14
      vertex 2.71732 19.0761 14
      vertex 2.39289 19.2929 14
    endloop
  endfacet
  facet normal 0 0 1
    outer loop
      vertex 0.907969 17.808 14
      vertex 2.39289 19.2929 14
      vertex 2.17612 19.6173 14
    endloop
  endfacet
  facet normal 0 0 1
    outer loop
      vertex 2.71732 19.0761 14
      vertex 1.91368 17.136 14
      vertex 3.1 16.9 14
    endloop
  endfacet
  facet normal 0 0 1
    outer loop
      vertex 0.235973 18.8137 14
      vertex 2.17612 19.6173 14
      vertex 2.1 20 14
    endloop
  endfacet
  facet normal 0 0 1
    outer loop
      vertex 2.1 27.9011 14
      vertex 0 20 14
      vertex 2.1 25 14
    endloop
  endfacet
  facet normal 0 0 1
    outer loop
      vertex 2.17612 120.383 14
      vertex 0.235973 121.186 14
      vertex 2.1 120 14
    endloop
  endfacet
  facet normal 0 0 1
    outer loop
      vertex 2.1 25 14
      vertex 0 20 14
      vertex 2.1 20 14
    endloop
  endfacet
  facet normal 0 0 1
    outer loop
      vertex 2.1 120 14
      vertex 0.235973 121.186 14
      vertex 0 120 14
    endloop
  endfacet
  facet normal 0 -0 1
    outer loop
      vertex 0.235973 18.8137 14
      vertex 2.1 20 14
      vertex 0 20 14
    endloop
  endfacet
  facet normal 0 0 1
    outer loop
      vertex 2.39289 19.2929 14
      vertex 0.907969 17.808 14
      vertex 1.91368 17.136 14
    endloop
  endfacet
  facet normal 0 0 1
    outer loop
      vertex 2.17612 19.6173 14
      vertex 0.235973 18.8137 14
      vertex 0.907969 17.808 14
    endloop
  endfacet
  facet normal 1 -0 0
    outer loop
      vertex 6.2 20 14
      vertex 6.2 25 0
      vertex 6.2 25 14
    endloop
  endfacet
  facet normal 1 0 0
    outer loop
      vertex 6.2 25 0
      vertex 6.2 20 14
      vertex 6.2 20 0
    endloop
  endfacet
  facet normal 0.980785 0.195091 0
    outer loop
      vertex 6.2 25 14
      vertex 5.96403 26.1863 0
      vertex 5.96403 26.1863 14
    endloop
  endfacet
  facet normal 0.980785 0.195091 0
    outer loop
      vertex 5.96403 26.1863 0
      vertex 6.2 25 14
      vertex 6.2 25 0
    endloop
  endfacet
  facet normal -0.831466 -0.555575 0
    outer loop
      vertex 0.907969 17.808 7
      vertex 0.235973 18.8137 14
      vertex 0.235973 18.8137 7
    endloop
  endfacet
  facet normal -0.831466 -0.555575 0
    outer loop
      vertex 0.235973 18.8137 14
      vertex 0.907969 17.808 7
      vertex 0.907969 17.808 14
    endloop
  endfacet
  facet normal 0.980785 -0.195091 0
    outer loop
      vertex 5.96403 18.8137 14
      vertex 6.2 20 0
      vertex 6.2 20 14
    endloop
  endfacet
  facet normal 0.980785 -0.195091 0
    outer loop
      vertex 6.2 20 0
      vertex 5.96403 18.8137 14
      vertex 5.96403 18.8137 0
    endloop
  endfacet
  facet normal 0.831465 0.555578 0
    outer loop
      vertex 5.96403 26.1863 14
      vertex 5.29203 27.192 0
      vertex 5.29203 27.192 14
    endloop
  endfacet
  facet normal 0.831465 0.555578 0
    outer loop
      vertex 5.29203 27.192 0
      vertex 5.96403 26.1863 14
      vertex 5.96403 26.1863 0
    endloop
  endfacet
  facet normal 0.195111 -0.980781 0
    outer loop
      vertex 3.1 16.9 0
      vertex 4.28632 17.136 14
      vertex 3.1 16.9 14
    endloop
  endfacet
  facet normal 0.195111 -0.980781 0
    outer loop
      vertex 4.28632 17.136 14
      vertex 3.1 16.9 0
      vertex 4.28632 17.136 0
    endloop
  endfacet
  facet normal 0.555574 -0.831467 0
    outer loop
      vertex 4.28632 17.136 0
      vertex 5.29203 17.808 14
      vertex 4.28632 17.136 14
    endloop
  endfacet
  facet normal 0.555574 -0.831467 0
    outer loop
      vertex 5.29203 17.808 14
      vertex 4.28632 17.136 0
      vertex 5.29203 17.808 0
    endloop
  endfacet
  facet normal 0.195111 0.980781 -0
    outer loop
      vertex 4.28632 27.864 0
      vertex 3.1 28.1 14
      vertex 4.28632 27.864 14
    endloop
  endfacet
  facet normal 0.195111 0.980781 0
    outer loop
      vertex 3.1 28.1 14
      vertex 4.28632 27.864 0
      vertex 3.1 28.1 0
    endloop
  endfacet
  facet normal -0.195286 -0.980746 0
    outer loop
      vertex 2.1 17.0989 7
      vertex 1.91368 17.136 14
      vertex 1.91368 17.136 7
    endloop
  endfacet
  facet normal -0.195111 -0.980781 4.83668e-06
    outer loop
      vertex 1.91368 17.136 14
      vertex 2.1 17.0989 7
      vertex 3.1 16.9 14
    endloop
  endfacet
  facet normal -0.195079 -0.980788 0
    outer loop
      vertex 3.1 16.9 0
      vertex 2.1 17.0989 7
      vertex 2.1 17.0989 0
    endloop
  endfacet
  facet normal -0.195079 -0.980788 0
    outer loop
      vertex 2.1 17.0989 7
      vertex 3.1 16.9 0
      vertex 3.1 16.9 14
    endloop
  endfacet
  facet normal -0.555573 -0.831468 0
    outer loop
      vertex 0.907969 17.808 7
      vertex 1.91368 17.136 14
      vertex 0.907969 17.808 14
    endloop
  endfacet
  facet normal -0.555573 -0.831468 -0
    outer loop
      vertex 1.91368 17.136 14
      vertex 0.907969 17.808 7
      vertex 1.91368 17.136 7
    endloop
  endfacet
  facet normal 0.831465 -0.555578 0
    outer loop
      vertex 5.29203 17.808 14
      vertex 5.96403 18.8137 0
      vertex 5.96403 18.8137 14
    endloop
  endfacet
  facet normal 0.831465 -0.555578 0
    outer loop
      vertex 5.96403 18.8137 0
      vertex 5.29203 17.808 14
      vertex 5.29203 17.808 0
    endloop
  endfacet
  facet normal -0.195079 0.980788 0
    outer loop
      vertex 3.1 28.1 0
      vertex 2.1 27.9011 14
      vertex 3.1 28.1 14
    endloop
  endfacet
  facet normal -0.195079 0.980788 0
    outer loop
      vertex 2.1 27.9011 14
      vertex 3.1 28.1 0
      vertex 2.1 27.9011 0
    endloop
  endfacet
  facet normal 1 -0 0
    outer loop
      vertex 2.1 115 14
      vertex 2.1 120 0
      vertex 2.1 120 14
    endloop
  endfacet
  facet normal 1 0 0
    outer loop
      vertex 2.1 120 0
      vertex 2.1 115 14
      vertex 2.1 115 0
    endloop
  endfacet
  facet normal 1 -0 0
    outer loop
      vertex 2.1 20 14
      vertex 2.1 25 0
      vertex 2.1 25 14
    endloop
  endfacet
  facet normal 1 0 0
    outer loop
      vertex 2.1 25 0
      vertex 2.1 20 14
      vertex 2.1 20 0
    endloop
  endfacet
  facet normal 1 -0 0
    outer loop
      vertex 2.1 27.9011 14
      vertex 2.1 112.099 0
      vertex 2.1 112.099 14
    endloop
  endfacet
  facet normal 1 0 0
    outer loop
      vertex 2.1 112.099 0
      vertex 2.1 27.9011 14
      vertex 2.1 27.9011 0
    endloop
  endfacet
  facet normal 1 -0 0
    outer loop
      vertex 2.1 0 7
      vertex 2.1 0.756214 0
      vertex 2.1 0.756214 7
    endloop
  endfacet
  facet normal 1 0 0
    outer loop
      vertex 2.1 0.756214 0
      vertex 2.1 0 7
      vertex 2.1 0 0
    endloop
  endfacet
  facet normal 1 -0 0
    outer loop
      vertex 2.1 139.244 7
      vertex 2.1 140 0
      vertex 2.1 140 7
    endloop
  endfacet
  facet normal 1 0 0
    outer loop
      vertex 2.1 140 0
      vertex 2.1 139.244 7
      vertex 2.1 139.244 0
    endloop
  endfacet
  facet normal 1 -0 0
    outer loop
      vertex 2.1 122.901 7
      vertex 2.1 136.756 0
      vertex 2.1 136.756 7
    endloop
  endfacet
  facet normal 1 0 0
    outer loop
      vertex 2.1 136.756 0
      vertex 2.1 122.901 7
      vertex 2.1 122.901 0
    endloop
  endfacet
  facet normal 1 -0 0
    outer loop
      vertex 2.1 3.24422 7
      vertex 2.1 17.0989 0
      vertex 2.1 17.0989 7
    endloop
  endfacet
  facet normal 1 0 0
    outer loop
      vertex 2.1 17.0989 0
      vertex 2.1 3.24422 7
      vertex 2.1 3.24422 0
    endloop
  endfacet
  facet normal -0.980787 -0.195081 0
    outer loop
      vertex 4.1 25 0
      vertex 4.02388 25.3827 14
      vertex 4.02388 25.3827 0
    endloop
  endfacet
  facet normal -0.980787 -0.195081 0
    outer loop
      vertex 4.02388 25.3827 14
      vertex 4.1 25 0
      vertex 4.1 25 14
    endloop
  endfacet
  facet normal -0.195042 0.980795 0
    outer loop
      vertex 3.48268 19.0761 0
      vertex 3.1 19 14
      vertex 3.48268 19.0761 14
    endloop
  endfacet
  facet normal -0.195042 0.980795 0
    outer loop
      vertex 3.1 19 14
      vertex 3.48268 19.0761 0
      vertex 3.1 19 0
    endloop
  endfacet
  facet normal 0.555611 0.831443 -0
    outer loop
      vertex 2.71732 19.0761 0
      vertex 2.39289 19.2929 14
      vertex 2.71732 19.0761 14
    endloop
  endfacet
  facet normal 0.555611 0.831443 0
    outer loop
      vertex 2.39289 19.2929 14
      vertex 2.71732 19.0761 0
      vertex 2.39289 19.2929 0
    endloop
  endfacet
  facet normal 0.980787 0.195081 0
    outer loop
      vertex 2.17612 19.6173 14
      vertex 2.1 20 0
      vertex 2.1 20 14
    endloop
  endfacet
  facet normal 0.980787 0.195081 0
    outer loop
      vertex 2.1 20 0
      vertex 2.17612 19.6173 14
      vertex 2.17612 19.6173 0
    endloop
  endfacet
  facet normal -0.831454 -0.555593 0
    outer loop
      vertex 4.02388 25.3827 0
      vertex 3.80711 25.7071 14
      vertex 3.80711 25.7071 0
    endloop
  endfacet
  facet normal -0.831454 -0.555593 0
    outer loop
      vertex 3.80711 25.7071 14
      vertex 4.02388 25.3827 0
      vertex 4.02388 25.3827 14
    endloop
  endfacet
  facet normal 0.980787 -0.195081 0
    outer loop
      vertex 2.1 25 14
      vertex 2.17612 25.3827 0
      vertex 2.17612 25.3827 14
    endloop
  endfacet
  facet normal 0.980787 -0.195081 0
    outer loop
      vertex 2.17612 25.3827 0
      vertex 2.1 25 14
      vertex 2.1 25 0
    endloop
  endfacet
  facet normal 0.555611 -0.831443 0
    outer loop
      vertex 2.39289 25.7071 0
      vertex 2.71732 25.9239 14
      vertex 2.39289 25.7071 14
    endloop
  endfacet
  facet normal 0.555611 -0.831443 0
    outer loop
      vertex 2.71732 25.9239 14
      vertex 2.39289 25.7071 0
      vertex 2.71732 25.9239 0
    endloop
  endfacet
  facet normal -0.831454 0.555593 0
    outer loop
      vertex 3.80711 19.2929 0
      vertex 4.02388 19.6173 14
      vertex 4.02388 19.6173 0
    endloop
  endfacet
  facet normal -0.831454 0.555593 0
    outer loop
      vertex 4.02388 19.6173 14
      vertex 3.80711 19.2929 0
      vertex 3.80711 19.2929 14
    endloop
  endfacet
  facet normal -0.555611 0.831443 0
    outer loop
      vertex 3.80711 19.2929 0
      vertex 3.48268 19.0761 14
      vertex 3.80711 19.2929 14
    endloop
  endfacet
  facet normal -0.555611 0.831443 0
    outer loop
      vertex 3.48268 19.0761 14
      vertex 3.80711 19.2929 0
      vertex 3.48268 19.0761 0
    endloop
  endfacet
  facet normal 0.831454 0.555593 0
    outer loop
      vertex 2.39289 19.2929 14
      vertex 2.17612 19.6173 0
      vertex 2.17612 19.6173 14
    endloop
  endfacet
  facet normal 0.831454 0.555593 0
    outer loop
      vertex 2.17612 19.6173 0
      vertex 2.39289 19.2929 14
      vertex 2.39289 19.2929 0
    endloop
  endfacet
  facet normal 0.195042 -0.980795 0
    outer loop
      vertex 2.71732 25.9239 0
      vertex 3.1 26 14
      vertex 2.71732 25.9239 14
    endloop
  endfacet
  facet normal 0.195042 -0.980795 0
    outer loop
      vertex 3.1 26 14
      vertex 2.71732 25.9239 0
      vertex 3.1 26 0
    endloop
  endfacet
  facet normal -0.555611 -0.831443 0
    outer loop
      vertex 3.48268 25.9239 0
      vertex 3.80711 25.7071 14
      vertex 3.48268 25.9239 14
    endloop
  endfacet
  facet normal -0.555611 -0.831443 -0
    outer loop
      vertex 3.80711 25.7071 14
      vertex 3.48268 25.9239 0
      vertex 3.80711 25.7071 0
    endloop
  endfacet
  facet normal 0.831454 -0.555593 0
    outer loop
      vertex 2.17612 25.3827 14
      vertex 2.39289 25.7071 0
      vertex 2.39289 25.7071 14
    endloop
  endfacet
  facet normal 0.831454 -0.555593 0
    outer loop
      vertex 2.39289 25.7071 0
      vertex 2.17612 25.3827 14
      vertex 2.17612 25.3827 0
    endloop
  endfacet
  facet normal -1 0 0
    outer loop
      vertex 4.1 20 0
      vertex 4.1 25 14
      vertex 4.1 25 0
    endloop
  endfacet
  facet normal -1 -0 0
    outer loop
      vertex 4.1 25 14
      vertex 4.1 20 0
      vertex 4.1 20 14
    endloop
  endfacet
  facet normal -0.980787 0.195081 0
    outer loop
      vertex 4.02388 19.6173 0
      vertex 4.1 20 14
      vertex 4.1 20 0
    endloop
  endfacet
  facet normal -0.980787 0.195081 0
    outer loop
      vertex 4.1 20 14
      vertex 4.02388 19.6173 0
      vertex 4.02388 19.6173 14
    endloop
  endfacet
  facet normal 0.195042 0.980795 -0
    outer loop
      vertex 3.1 19 0
      vertex 2.71732 19.0761 14
      vertex 3.1 19 14
    endloop
  endfacet
  facet normal 0.195042 0.980795 0
    outer loop
      vertex 2.71732 19.0761 14
      vertex 3.1 19 0
      vertex 2.71732 19.0761 0
    endloop
  endfacet
  facet normal -0.195042 -0.980795 0
    outer loop
      vertex 3.1 26 0
      vertex 3.48268 25.9239 14
      vertex 3.1 26 14
    endloop
  endfacet
  facet normal -0.195042 -0.980795 -0
    outer loop
      vertex 3.48268 25.9239 14
      vertex 3.1 26 0
      vertex 3.48268 25.9239 0
    endloop
  endfacet
  facet normal 0.555574 0.831467 -0
    outer loop
      vertex 5.29203 122.192 0
      vertex 4.28632 122.864 14
      vertex 5.29203 122.192 14
    endloop
  endfacet
  facet normal 0.555574 0.831467 0
    outer loop
      vertex 4.28632 122.864 14
      vertex 5.29203 122.192 0
      vertex 4.28632 122.864 0
    endloop
  endfacet
  facet normal 1 -0 0
    outer loop
      vertex 6.2 115 14
      vertex 6.2 120 0
      vertex 6.2 120 14
    endloop
  endfacet
  facet normal 1 0 0
    outer loop
      vertex 6.2 120 0
      vertex 6.2 115 14
      vertex 6.2 115 0
    endloop
  endfacet
  facet normal 0.980776 0.195138 0
    outer loop
      vertex 6.2 120 14
      vertex 5.96403 121.186 0
      vertex 5.96403 121.186 14
    endloop
  endfacet
  facet normal 0.980776 0.195138 0
    outer loop
      vertex 5.96403 121.186 0
      vertex 6.2 120 14
      vertex 6.2 120 0
    endloop
  endfacet
  facet normal -0.555573 0.831468 0
    outer loop
      vertex 1.91368 122.864 7
      vertex 0.907969 122.192 14
      vertex 1.91368 122.864 14
    endloop
  endfacet
  facet normal -0.555573 0.831468 0
    outer loop
      vertex 0.907969 122.192 14
      vertex 1.91368 122.864 7
      vertex 0.907969 122.192 7
    endloop
  endfacet
  facet normal -0.980775 0.19514 0
    outer loop
      vertex 0 120 7
      vertex 0.235973 121.186 14
      vertex 0.235973 121.186 7
    endloop
  endfacet
  facet normal -0.980775 0.19514 0
    outer loop
      vertex 0.235973 121.186 14
      vertex 0 120 7
      vertex 0 120 14
    endloop
  endfacet
  facet normal -0.831543 0.555461 0
    outer loop
      vertex 0.235973 121.186 7
      vertex 0.907969 122.192 14
      vertex 0.907969 122.192 7
    endloop
  endfacet
  facet normal -0.831543 0.555461 0
    outer loop
      vertex 0.907969 122.192 14
      vertex 0.235973 121.186 7
      vertex 0.235973 121.186 14
    endloop
  endfacet
  facet normal 0.980776 -0.195138 0
    outer loop
      vertex 5.96403 113.814 14
      vertex 6.2 115 0
      vertex 6.2 115 14
    endloop
  endfacet
  facet normal 0.980776 -0.195138 0
    outer loop
      vertex 6.2 115 0
      vertex 5.96403 113.814 14
      vertex 5.96403 113.814 0
    endloop
  endfacet
  facet normal 0.831541 0.555463 0
    outer loop
      vertex 5.96403 121.186 14
      vertex 5.29203 122.192 0
      vertex 5.29203 122.192 14
    endloop
  endfacet
  facet normal 0.831541 0.555463 0
    outer loop
      vertex 5.29203 122.192 0
      vertex 5.96403 121.186 14
      vertex 5.96403 121.186 0
    endloop
  endfacet
  facet normal 0.195111 -0.980781 0
    outer loop
      vertex 3.1 111.9 0
      vertex 4.28632 112.136 14
      vertex 3.1 111.9 14
    endloop
  endfacet
  facet normal 0.195111 -0.980781 0
    outer loop
      vertex 4.28632 112.136 14
      vertex 3.1 111.9 0
      vertex 4.28632 112.136 0
    endloop
  endfacet
  facet normal 0.555574 -0.831467 0
    outer loop
      vertex 4.28632 112.136 0
      vertex 5.29203 112.808 14
      vertex 4.28632 112.136 14
    endloop
  endfacet
  facet normal 0.555574 -0.831467 0
    outer loop
      vertex 5.29203 112.808 14
      vertex 4.28632 112.136 0
      vertex 5.29203 112.808 0
    endloop
  endfacet
  facet normal 0.195111 0.980781 -0
    outer loop
      vertex 4.28632 122.864 0
      vertex 3.1 123.1 14
      vertex 4.28632 122.864 14
    endloop
  endfacet
  facet normal 0.195111 0.980781 0
    outer loop
      vertex 3.1 123.1 14
      vertex 4.28632 122.864 0
      vertex 3.1 123.1 0
    endloop
  endfacet
  facet normal -0.195173 -0.980769 0
    outer loop
      vertex 2.1 112.099 0
      vertex 3.1 111.9 14
      vertex 2.1 112.099 14
    endloop
  endfacet
  facet normal -0.195173 -0.980769 -0
    outer loop
      vertex 3.1 111.9 14
      vertex 2.1 112.099 0
      vertex 3.1 111.9 0
    endloop
  endfacet
  facet normal 0.831541 -0.555463 0
    outer loop
      vertex 5.29203 112.808 14
      vertex 5.96403 113.814 0
      vertex 5.96403 113.814 14
    endloop
  endfacet
  facet normal 0.831541 -0.555463 0
    outer loop
      vertex 5.96403 113.814 0
      vertex 5.29203 112.808 14
      vertex 5.29203 112.808 0
    endloop
  endfacet
  facet normal -0.195111 0.980781 -9.17448e-06
    outer loop
      vertex 3.1 123.1 14
      vertex 2.1 122.901 7
      vertex 1.91368 122.864 14
    endloop
  endfacet
  facet normal -0.195173 0.980769 0
    outer loop
      vertex 3.1 123.1 0
      vertex 2.1 122.901 7
      vertex 3.1 123.1 14
    endloop
  endfacet
  facet normal -0.195173 0.980769 0
    outer loop
      vertex 2.1 122.901 7
      vertex 3.1 123.1 0
      vertex 2.1 122.901 0
    endloop
  endfacet
  facet normal -0.19478 0.980847 0
    outer loop
      vertex 1.91368 122.864 14
      vertex 2.1 122.901 7
      vertex 1.91368 122.864 7
    endloop
  endfacet
  facet normal -0.980816 -0.194934 0
    outer loop
      vertex 4.1 120 0
      vertex 4.02388 120.383 14
      vertex 4.02388 120.383 0
    endloop
  endfacet
  facet normal -0.980816 -0.194934 0
    outer loop
      vertex 4.02388 120.383 14
      vertex 4.1 120 0
      vertex 4.1 120 14
    endloop
  endfacet
  facet normal -0.194795 0.980844 0
    outer loop
      vertex 3.48268 114.076 0
      vertex 3.1 114 14
      vertex 3.48268 114.076 14
    endloop
  endfacet
  facet normal -0.194795 0.980844 0
    outer loop
      vertex 3.1 114 14
      vertex 3.48268 114.076 0
      vertex 3.1 114 0
    endloop
  endfacet
  facet normal 0.555965 0.831206 -0
    outer loop
      vertex 2.71732 114.076 0
      vertex 2.39289 114.293 14
      vertex 2.71732 114.076 14
    endloop
  endfacet
  facet normal 0.555965 0.831206 0
    outer loop
      vertex 2.39289 114.293 14
      vertex 2.71732 114.076 0
      vertex 2.39289 114.293 0
    endloop
  endfacet
  facet normal 0.980816 0.194934 0
    outer loop
      vertex 2.17612 114.617 14
      vertex 2.1 115 0
      vertex 2.1 115 14
    endloop
  endfacet
  facet normal 0.980816 0.194934 0
    outer loop
      vertex 2.1 115 0
      vertex 2.17612 114.617 14
      vertex 2.17612 114.617 0
    endloop
  endfacet
  facet normal -0.831138 -0.556067 0
    outer loop
      vertex 4.02388 120.383 0
      vertex 3.80711 120.707 14
      vertex 3.80711 120.707 0
    endloop
  endfacet
  facet normal -0.831138 -0.556067 0
    outer loop
      vertex 3.80711 120.707 14
      vertex 4.02388 120.383 0
      vertex 4.02388 120.383 14
    endloop
  endfacet
  facet normal 0.980816 -0.194934 0
    outer loop
      vertex 2.1 120 14
      vertex 2.17612 120.383 0
      vertex 2.17612 120.383 14
    endloop
  endfacet
  facet normal 0.980816 -0.194934 0
    outer loop
      vertex 2.17612 120.383 0
      vertex 2.1 120 14
      vertex 2.1 120 0
    endloop
  endfacet
  facet normal 0.555965 -0.831206 0
    outer loop
      vertex 2.39289 120.707 0
      vertex 2.71732 120.924 14
      vertex 2.39289 120.707 14
    endloop
  endfacet
  facet normal 0.555965 -0.831206 0
    outer loop
      vertex 2.71732 120.924 14
      vertex 2.39289 120.707 0
      vertex 2.71732 120.924 0
    endloop
  endfacet
  facet normal -0.831138 0.556067 0
    outer loop
      vertex 3.80711 114.293 0
      vertex 4.02388 114.617 14
      vertex 4.02388 114.617 0
    endloop
  endfacet
  facet normal -0.831138 0.556067 0
    outer loop
      vertex 4.02388 114.617 14
      vertex 3.80711 114.293 0
      vertex 3.80711 114.293 14
    endloop
  endfacet
  facet normal -0.555965 0.831206 0
    outer loop
      vertex 3.80711 114.293 0
      vertex 3.48268 114.076 14
      vertex 3.80711 114.293 14
    endloop
  endfacet
  facet normal -0.555965 0.831206 0
    outer loop
      vertex 3.48268 114.076 14
      vertex 3.80711 114.293 0
      vertex 3.48268 114.076 0
    endloop
  endfacet
  facet normal 0.831138 0.556067 0
    outer loop
      vertex 2.39289 114.293 14
      vertex 2.17612 114.617 0
      vertex 2.17612 114.617 14
    endloop
  endfacet
  facet normal 0.831138 0.556067 0
    outer loop
      vertex 2.17612 114.617 0
      vertex 2.39289 114.293 14
      vertex 2.39289 114.293 0
    endloop
  endfacet
  facet normal 0.194795 -0.980844 0
    outer loop
      vertex 2.71732 120.924 0
      vertex 3.1 121 14
      vertex 2.71732 120.924 14
    endloop
  endfacet
  facet normal 0.194795 -0.980844 0
    outer loop
      vertex 3.1 121 14
      vertex 2.71732 120.924 0
      vertex 3.1 121 0
    endloop
  endfacet
  facet normal -0.555965 -0.831206 0
    outer loop
      vertex 3.48268 120.924 0
      vertex 3.80711 120.707 14
      vertex 3.48268 120.924 14
    endloop
  endfacet
  facet normal -0.555965 -0.831206 -0
    outer loop
      vertex 3.80711 120.707 14
      vertex 3.48268 120.924 0
      vertex 3.80711 120.707 0
    endloop
  endfacet
  facet normal 0.831138 -0.556067 0
    outer loop
      vertex 2.17612 120.383 14
      vertex 2.39289 120.707 0
      vertex 2.39289 120.707 14
    endloop
  endfacet
  facet normal 0.831138 -0.556067 0
    outer loop
      vertex 2.39289 120.707 0
      vertex 2.17612 120.383 14
      vertex 2.17612 120.383 0
    endloop
  endfacet
  facet normal -1 0 0
    outer loop
      vertex 4.1 115 0
      vertex 4.1 120 14
      vertex 4.1 120 0
    endloop
  endfacet
  facet normal -1 -0 0
    outer loop
      vertex 4.1 120 14
      vertex 4.1 115 0
      vertex 4.1 115 14
    endloop
  endfacet
  facet normal -0.980816 0.194934 0
    outer loop
      vertex 4.02388 114.617 0
      vertex 4.1 115 14
      vertex 4.1 115 0
    endloop
  endfacet
  facet normal -0.980816 0.194934 0
    outer loop
      vertex 4.1 115 14
      vertex 4.02388 114.617 0
      vertex 4.02388 114.617 14
    endloop
  endfacet
  facet normal 0.194795 0.980844 -0
    outer loop
      vertex 3.1 114 0
      vertex 2.71732 114.076 14
      vertex 3.1 114 14
    endloop
  endfacet
  facet normal 0.194795 0.980844 0
    outer loop
      vertex 2.71732 114.076 14
      vertex 3.1 114 0
      vertex 2.71732 114.076 0
    endloop
  endfacet
  facet normal -0.194795 -0.980844 0
    outer loop
      vertex 3.1 121 0
      vertex 3.48268 120.924 14
      vertex 3.1 121 14
    endloop
  endfacet
  facet normal -0.194795 -0.980844 -0
    outer loop
      vertex 3.48268 120.924 14
      vertex 3.1 121 0
      vertex 3.48268 120.924 0
    endloop
  endfacet
  facet normal 0 1 -0
    outer loop
      vertex 2.1 140 0
      vertex 1.9 140 7
      vertex 2.1 140 7
    endloop
  endfacet
  facet normal 0 1 0
    outer loop
      vertex 1.9 140 7
      vertex 2.1 140 0
      vertex 1.9 140 0
    endloop
  endfacet
  facet normal 0 -1 0
    outer loop
      vertex 1.9 0 0
      vertex 2.1 0 7
      vertex 1.9 0 7
    endloop
  endfacet
  facet normal 0 -1 -0
    outer loop
      vertex 2.1 0 7
      vertex 1.9 0 0
      vertex 2.1 0 0
    endloop
  endfacet
endsolid OpenSCAD_Model
